<svg width="203" height="16" viewBox="0 0 203 16" fill="none" xmlns="http://www.w3.org/2000/svg">
<path d="M14.46 15H12.48L9.22 3H9.18L5.88 15H3.9L0.24 0.719999H2.18L4.98 12.6H5.02L8.22 0.719999H10.28L13.44 12.6H13.48L16.38 0.719999H18.28L14.46 15ZM25.8428 8.84C25.8161 8.44 25.7228 8.06 25.5628 7.7C25.4161 7.34 25.2095 7.03333 24.9428 6.78C24.6895 6.51333 24.3828 6.30667 24.0228 6.16C23.6761 6 23.2895 5.92 22.8628 5.92C22.4228 5.92 22.0228 6 21.6628 6.16C21.3161 6.30667 21.0161 6.51333 20.7628 6.78C20.5095 7.04667 20.3095 7.36 20.1628 7.72C20.0161 8.06667 19.9295 8.44 19.9028 8.84H25.8428ZM27.4828 11.72C27.2561 12.88 26.7561 13.7533 25.9828 14.34C25.2095 14.9267 24.2361 15.22 23.0628 15.22C22.2361 15.22 21.5161 15.0867 20.9028 14.82C20.3028 14.5533 19.7961 14.18 19.3828 13.7C18.9695 13.22 18.6561 12.6467 18.4428 11.98C18.2428 11.3133 18.1295 10.5867 18.1028 9.8C18.1028 9.01333 18.2228 8.29333 18.4628 7.64C18.7028 6.98667 19.0361 6.42 19.4628 5.94C19.9028 5.46 20.4161 5.08667 21.0028 4.82C21.6028 4.55333 22.2561 4.42 22.9628 4.42C23.8828 4.42 24.6428 4.61333 25.2428 5C25.8561 5.37333 26.3428 5.85333 26.7028 6.44C27.0761 7.02667 27.3295 7.66667 27.4628 8.36C27.6095 9.05333 27.6695 9.71333 27.6428 10.34H19.9028C19.8895 10.7933 19.9428 11.2267 20.0628 11.64C20.1828 12.04 20.3761 12.4 20.6428 12.72C20.9095 13.0267 21.2495 13.2733 21.6628 13.46C22.0761 13.6467 22.5628 13.74 23.1228 13.74C23.8428 13.74 24.4295 13.5733 24.8828 13.24C25.3495 12.9067 25.6561 12.4 25.8028 11.72H27.4828ZM29.505 0.719999H31.205V15H29.505V0.719999ZM40.8586 7.98C40.7253 7.32667 40.4453 6.82 40.0186 6.46C39.5919 6.1 39.0186 5.92 38.2986 5.92C37.6853 5.92 37.1719 6.03333 36.7586 6.26C36.3453 6.48667 36.0119 6.78667 35.7586 7.16C35.5186 7.53333 35.3453 7.96667 35.2386 8.46C35.1319 8.94 35.0786 9.44 35.0786 9.96C35.0786 10.44 35.1319 10.9067 35.2386 11.36C35.3586 11.8133 35.5386 12.22 35.7786 12.58C36.0186 12.9267 36.3319 13.2067 36.7186 13.42C37.1053 13.6333 37.5653 13.74 38.0986 13.74C38.9386 13.74 39.5919 13.52 40.0586 13.08C40.5386 12.64 40.8319 12.02 40.9386 11.22H42.6786C42.4919 12.5 42.0119 13.4867 41.2386 14.18C40.4786 14.8733 39.4386 15.22 38.1186 15.22C37.3319 15.22 36.6319 15.0933 36.0186 14.84C35.4186 14.5867 34.9119 14.2267 34.4986 13.76C34.0986 13.2933 33.7919 12.74 33.5786 12.1C33.3786 11.4467 33.2786 10.7333 33.2786 9.96C33.2786 9.18667 33.3786 8.46667 33.5786 7.8C33.7786 7.12 34.0786 6.53333 34.4786 6.04C34.8919 5.53333 35.4053 5.14 36.0186 4.86C36.6319 4.56667 37.3453 4.42 38.1586 4.42C38.7453 4.42 39.2919 4.49333 39.7986 4.64C40.3186 4.77333 40.7719 4.98667 41.1586 5.28C41.5586 5.57333 41.8853 5.94667 42.1386 6.4C42.3919 6.84 42.5519 7.36667 42.6186 7.98H40.8586ZM45.8208 9.84C45.8208 10.4667 45.9008 11.0267 46.0608 11.52C46.2341 12 46.4674 12.4067 46.7608 12.74C47.0541 13.06 47.3941 13.3067 47.7808 13.48C48.1808 13.6533 48.6008 13.74 49.0408 13.74C49.4808 13.74 49.8941 13.6533 50.2808 13.48C50.6808 13.3067 51.0274 13.06 51.3208 12.74C51.6141 12.4067 51.8408 12 52.0008 11.52C52.1741 11.0267 52.2608 10.4667 52.2608 9.84C52.2608 9.21333 52.1741 8.66 52.0008 8.18C51.8408 7.68667 51.6141 7.27333 51.3208 6.94C51.0274 6.60667 50.6808 6.35333 50.2808 6.18C49.8941 6.00667 49.4808 5.92 49.0408 5.92C48.6008 5.92 48.1808 6.00667 47.7808 6.18C47.3941 6.35333 47.0541 6.60667 46.7608 6.94C46.4674 7.27333 46.2341 7.68667 46.0608 8.18C45.9008 8.66 45.8208 9.21333 45.8208 9.84ZM44.0208 9.84C44.0208 9.08 44.1274 8.37333 44.3408 7.72C44.5541 7.05333 44.8741 6.48 45.3008 6C45.7274 5.50667 46.2541 5.12 46.8808 4.84C47.5074 4.56 48.2274 4.42 49.0408 4.42C49.8674 4.42 50.5874 4.56 51.2008 4.84C51.8274 5.12 52.3541 5.50667 52.7808 6C53.2074 6.48 53.5274 7.05333 53.7408 7.72C53.9541 8.37333 54.0608 9.08 54.0608 9.84C54.0608 10.6 53.9541 11.3067 53.7408 11.96C53.5274 12.6133 53.2074 13.1867 52.7808 13.68C52.3541 14.16 51.8274 14.54 51.2008 14.82C50.5874 15.0867 49.8674 15.22 49.0408 15.22C48.2274 15.22 47.5074 15.0867 46.8808 14.82C46.2541 14.54 45.7274 14.16 45.3008 13.68C44.8741 13.1867 44.5541 12.6133 44.3408 11.96C44.1274 11.3067 44.0208 10.6 44.0208 9.84ZM56.0652 4.66H57.6652V6.18H57.7052C58.4785 5.00667 59.5918 4.42 61.0452 4.42C61.6852 4.42 62.2652 4.55333 62.7852 4.82C63.3052 5.08667 63.6718 5.54 63.8852 6.18C64.2318 5.62 64.6852 5.18667 65.2452 4.88C65.8185 4.57333 66.4452 4.42 67.1252 4.42C67.6452 4.42 68.1118 4.48 68.5252 4.6C68.9518 4.70667 69.3118 4.88 69.6052 5.12C69.9118 5.36 70.1452 5.67333 70.3052 6.06C70.4785 6.43333 70.5652 6.88667 70.5652 7.42V15H68.8652V8.22C68.8652 7.9 68.8385 7.6 68.7852 7.32C68.7318 7.04 68.6318 6.8 68.4852 6.6C68.3385 6.38667 68.1318 6.22 67.8652 6.1C67.6118 5.98 67.2785 5.92 66.8652 5.92C66.0252 5.92 65.3652 6.16 64.8852 6.64C64.4052 7.12 64.1652 7.76 64.1652 8.56V15H62.4652V8.22C62.4652 7.88667 62.4318 7.58 62.3652 7.3C62.3118 7.02 62.2118 6.78 62.0652 6.58C61.9185 6.36667 61.7185 6.20667 61.4652 6.1C61.2252 5.98 60.9118 5.92 60.5252 5.92C60.0318 5.92 59.6052 6.02 59.2452 6.22C58.8985 6.42 58.6118 6.66 58.3852 6.94C58.1718 7.22 58.0118 7.51333 57.9052 7.82C57.8118 8.11333 57.7652 8.36 57.7652 8.56V15H56.0652V4.66ZM80.2959 8.84C80.2693 8.44 80.1759 8.06 80.0159 7.7C79.8693 7.34 79.6626 7.03333 79.3959 6.78C79.1426 6.51333 78.8359 6.30667 78.4759 6.16C78.1293 6 77.7426 5.92 77.3159 5.92C76.8759 5.92 76.4759 6 76.1159 6.16C75.7693 6.30667 75.4693 6.51333 75.2159 6.78C74.9626 7.04667 74.7626 7.36 74.6159 7.72C74.4693 8.06667 74.3826 8.44 74.3559 8.84H80.2959ZM81.9359 11.72C81.7093 12.88 81.2093 13.7533 80.4359 14.34C79.6626 14.9267 78.6893 15.22 77.5159 15.22C76.6893 15.22 75.9693 15.0867 75.3559 14.82C74.7559 14.5533 74.2493 14.18 73.8359 13.7C73.4226 13.22 73.1093 12.6467 72.8959 11.98C72.6959 11.3133 72.5826 10.5867 72.5559 9.8C72.5559 9.01333 72.6759 8.29333 72.9159 7.64C73.1559 6.98667 73.4893 6.42 73.9159 5.94C74.3559 5.46 74.8693 5.08667 75.4559 4.82C76.0559 4.55333 76.7093 4.42 77.4159 4.42C78.3359 4.42 79.0959 4.61333 79.6959 5C80.3093 5.37333 80.7959 5.85333 81.1559 6.44C81.5293 7.02667 81.7826 7.66667 81.9159 8.36C82.0626 9.05333 82.1226 9.71333 82.0959 10.34H74.3559C74.3426 10.7933 74.3959 11.2267 74.5159 11.64C74.6359 12.04 74.8293 12.4 75.0959 12.72C75.3626 13.0267 75.7026 13.2733 76.1159 13.46C76.5293 13.6467 77.0159 13.74 77.5759 13.74C78.2959 13.74 78.8826 13.5733 79.3359 13.24C79.8026 12.9067 80.1093 12.4 80.2559 11.72H81.9359ZM91.7845 4.66H93.8445V6.16H91.7845V12.58C91.7845 12.78 91.7979 12.94 91.8245 13.06C91.8645 13.18 91.9312 13.2733 92.0245 13.34C92.1179 13.4067 92.2445 13.4533 92.4045 13.48C92.5779 13.4933 92.7979 13.5 93.0645 13.5H93.8445V15H92.5445C92.1045 15 91.7245 14.9733 91.4045 14.92C91.0979 14.8533 90.8445 14.74 90.6445 14.58C90.4579 14.42 90.3179 14.1933 90.2245 13.9C90.1312 13.6067 90.0845 13.22 90.0845 12.74V6.16H88.3245V4.66H90.0845V1.56H91.7845V4.66ZM96.9731 9.84C96.9731 10.4667 97.0531 11.0267 97.2131 11.52C97.3865 12 97.6198 12.4067 97.9131 12.74C98.2065 13.06 98.5465 13.3067 98.9331 13.48C99.3331 13.6533 99.7531 13.74 100.193 13.74C100.633 13.74 101.046 13.6533 101.433 13.48C101.833 13.3067 102.18 13.06 102.473 12.74C102.766 12.4067 102.993 12 103.153 11.52C103.326 11.0267 103.413 10.4667 103.413 9.84C103.413 9.21333 103.326 8.66 103.153 8.18C102.993 7.68667 102.766 7.27333 102.473 6.94C102.18 6.60667 101.833 6.35333 101.433 6.18C101.046 6.00667 100.633 5.92 100.193 5.92C99.7531 5.92 99.3331 6.00667 98.9331 6.18C98.5465 6.35333 98.2065 6.60667 97.9131 6.94C97.6198 7.27333 97.3865 7.68667 97.2131 8.18C97.0531 8.66 96.9731 9.21333 96.9731 9.84ZM95.1731 9.84C95.1731 9.08 95.2798 8.37333 95.4931 7.72C95.7065 7.05333 96.0265 6.48 96.4531 6C96.8798 5.50667 97.4065 5.12 98.0331 4.84C98.6598 4.56 99.3798 4.42 100.193 4.42C101.02 4.42 101.74 4.56 102.353 4.84C102.98 5.12 103.506 5.50667 103.933 6C104.36 6.48 104.68 7.05333 104.893 7.72C105.106 8.37333 105.213 9.08 105.213 9.84C105.213 10.6 105.106 11.3067 104.893 11.96C104.68 12.6133 104.36 13.1867 103.933 13.68C103.506 14.16 102.98 14.54 102.353 14.82C101.74 15.0867 101.02 15.22 100.193 15.22C99.3798 15.22 98.6598 15.0867 98.0331 14.82C97.4065 14.54 96.8798 14.16 96.4531 13.68C96.0265 13.1867 95.7065 12.6133 95.4931 11.96C95.2798 11.3067 95.1731 10.6 95.1731 9.84ZM116.304 2.32H111.544V0.719999H122.964V2.32H118.204V15H116.304V2.32ZM129.222 8.84C129.195 8.44 129.102 8.06 128.942 7.7C128.795 7.34 128.588 7.03333 128.322 6.78C128.068 6.51333 127.762 6.30667 127.402 6.16C127.055 6 126.668 5.92 126.242 5.92C125.802 5.92 125.402 6 125.042 6.16C124.695 6.30667 124.395 6.51333 124.142 6.78C123.888 7.04667 123.688 7.36 123.542 7.72C123.395 8.06667 123.308 8.44 123.282 8.84H129.222ZM130.862 11.72C130.635 12.88 130.135 13.7533 129.362 14.34C128.588 14.9267 127.615 15.22 126.442 15.22C125.615 15.22 124.895 15.0867 124.282 14.82C123.682 14.5533 123.175 14.18 122.762 13.7C122.348 13.22 122.035 12.6467 121.822 11.98C121.622 11.3133 121.508 10.5867 121.482 9.8C121.482 9.01333 121.602 8.29333 121.842 7.64C122.082 6.98667 122.415 6.42 122.842 5.94C123.282 5.46 123.795 5.08667 124.382 4.82C124.982 4.55333 125.635 4.42 126.342 4.42C127.262 4.42 128.022 4.61333 128.622 5C129.235 5.37333 129.722 5.85333 130.082 6.44C130.455 7.02667 130.708 7.66667 130.842 8.36C130.988 9.05333 131.048 9.71333 131.022 10.34H123.282C123.268 10.7933 123.322 11.2267 123.442 11.64C123.562 12.04 123.755 12.4 124.022 12.72C124.288 13.0267 124.628 13.2733 125.042 13.46C125.455 13.6467 125.942 13.74 126.502 13.74C127.222 13.74 127.808 13.5733 128.262 13.24C128.728 12.9067 129.035 12.4 129.182 11.72H130.862ZM139.804 7.98C139.671 7.32667 139.391 6.82 138.964 6.46C138.537 6.1 137.964 5.92 137.244 5.92C136.631 5.92 136.117 6.03333 135.704 6.26C135.291 6.48667 134.957 6.78667 134.704 7.16C134.464 7.53333 134.291 7.96667 134.184 8.46C134.077 8.94 134.024 9.44 134.024 9.96C134.024 10.44 134.077 10.9067 134.184 11.36C134.304 11.8133 134.484 12.22 134.724 12.58C134.964 12.9267 135.277 13.2067 135.664 13.42C136.051 13.6333 136.511 13.74 137.044 13.74C137.884 13.74 138.537 13.52 139.004 13.08C139.484 12.64 139.777 12.02 139.884 11.22H141.624C141.437 12.5 140.957 13.4867 140.184 14.18C139.424 14.8733 138.384 15.22 137.064 15.22C136.277 15.22 135.577 15.0933 134.964 14.84C134.364 14.5867 133.857 14.2267 133.444 13.76C133.044 13.2933 132.737 12.74 132.524 12.1C132.324 11.4467 132.224 10.7333 132.224 9.96C132.224 9.18667 132.324 8.46667 132.524 7.8C132.724 7.12 133.024 6.53333 133.424 6.04C133.837 5.53333 134.351 5.14 134.964 4.86C135.577 4.56667 136.291 4.42 137.104 4.42C137.691 4.42 138.237 4.49333 138.744 4.64C139.264 4.77333 139.717 4.98667 140.104 5.28C140.504 5.57333 140.831 5.94667 141.084 6.4C141.337 6.84 141.497 7.36667 141.564 7.98H139.804ZM143.526 0.719999H145.226V6.18H145.266C145.399 5.86 145.586 5.59333 145.826 5.38C146.066 5.15333 146.333 4.97333 146.626 4.84C146.933 4.69333 147.246 4.58667 147.566 4.52C147.899 4.45333 148.219 4.42 148.526 4.42C149.206 4.42 149.773 4.51333 150.226 4.7C150.679 4.88667 151.046 5.14667 151.326 5.48C151.606 5.81333 151.799 6.21333 151.906 6.68C152.026 7.13333 152.086 7.64 152.086 8.2V15H150.386V8C150.386 7.36 150.199 6.85333 149.826 6.48C149.453 6.10667 148.939 5.92 148.286 5.92C147.766 5.92 147.313 6 146.926 6.16C146.553 6.32 146.239 6.54667 145.986 6.84C145.733 7.13333 145.539 7.48 145.406 7.88C145.286 8.26667 145.226 8.69333 145.226 9.16V15H143.526V0.719999ZM154.919 0.719999H156.819V13.4H164.379V15H154.919V0.719999ZM172.933 8.84C172.906 8.44 172.813 8.06 172.653 7.7C172.506 7.34 172.299 7.03333 172.033 6.78C171.779 6.51333 171.473 6.30667 171.113 6.16C170.766 6 170.379 5.92 169.953 5.92C169.513 5.92 169.113 6 168.753 6.16C168.406 6.30667 168.106 6.51333 167.853 6.78C167.599 7.04667 167.399 7.36 167.253 7.72C167.106 8.06667 167.019 8.44 166.993 8.84H172.933ZM174.573 11.72C174.346 12.88 173.846 13.7533 173.073 14.34C172.299 14.9267 171.326 15.22 170.153 15.22C169.326 15.22 168.606 15.0867 167.993 14.82C167.393 14.5533 166.886 14.18 166.473 13.7C166.059 13.22 165.746 12.6467 165.533 11.98C165.333 11.3133 165.219 10.5867 165.193 9.8C165.193 9.01333 165.313 8.29333 165.553 7.64C165.793 6.98667 166.126 6.42 166.553 5.94C166.993 5.46 167.506 5.08667 168.093 4.82C168.693 4.55333 169.346 4.42 170.053 4.42C170.973 4.42 171.733 4.61333 172.333 5C172.946 5.37333 173.433 5.85333 173.793 6.44C174.166 7.02667 174.419 7.66667 174.553 8.36C174.699 9.05333 174.759 9.71333 174.733 10.34H166.993C166.979 10.7933 167.033 11.2267 167.153 11.64C167.273 12.04 167.466 12.4 167.733 12.72C167.999 13.0267 168.339 13.2733 168.753 13.46C169.166 13.6467 169.653 13.74 170.213 13.74C170.933 13.74 171.519 13.5733 171.973 13.24C172.439 12.9067 172.746 12.4 172.893 11.72H174.573ZM185.655 14.96C185.362 15.1333 184.955 15.22 184.435 15.22C183.995 15.22 183.642 15.1 183.375 14.86C183.122 14.6067 182.995 14.2 182.995 13.64C182.528 14.2 181.982 14.6067 181.355 14.86C180.742 15.1 180.075 15.22 179.355 15.22C178.888 15.22 178.442 15.1667 178.015 15.06C177.602 14.9533 177.242 14.7867 176.935 14.56C176.628 14.3333 176.382 14.04 176.195 13.68C176.022 13.3067 175.935 12.86 175.935 12.34C175.935 11.7533 176.035 11.2733 176.235 10.9C176.435 10.5267 176.695 10.2267 177.015 10C177.348 9.76 177.722 9.58 178.135 9.46C178.562 9.34 178.995 9.24 179.435 9.16C179.902 9.06667 180.342 9 180.755 8.96C181.182 8.90667 181.555 8.84 181.875 8.76C182.195 8.66667 182.448 8.54 182.635 8.38C182.822 8.20667 182.915 7.96 182.915 7.64C182.915 7.26667 182.842 6.96667 182.695 6.74C182.562 6.51333 182.382 6.34 182.155 6.22C181.942 6.1 181.695 6.02 181.415 5.98C181.148 5.94 180.882 5.92 180.615 5.92C179.895 5.92 179.295 6.06 178.815 6.34C178.335 6.60667 178.075 7.12 178.035 7.88H176.335C176.362 7.24 176.495 6.7 176.735 6.26C176.975 5.82 177.295 5.46667 177.695 5.2C178.095 4.92 178.548 4.72 179.055 4.6C179.575 4.48 180.128 4.42 180.715 4.42C181.182 4.42 181.642 4.45333 182.095 4.52C182.562 4.58667 182.982 4.72667 183.355 4.94C183.728 5.14 184.028 5.42667 184.255 5.8C184.482 6.17333 184.595 6.66 184.595 7.26V12.58C184.595 12.98 184.615 13.2733 184.655 13.46C184.708 13.6467 184.868 13.74 185.135 13.74C185.282 13.74 185.455 13.7067 185.655 13.64V14.96ZM182.895 9.66C182.682 9.82 182.402 9.94 182.055 10.02C181.708 10.0867 181.342 10.1467 180.955 10.2C180.582 10.24 180.202 10.2933 179.815 10.36C179.428 10.4133 179.082 10.5067 178.775 10.64C178.468 10.7733 178.215 10.9667 178.015 11.22C177.828 11.46 177.735 11.7933 177.735 12.22C177.735 12.5 177.788 12.74 177.895 12.94C178.015 13.1267 178.162 13.28 178.335 13.4C178.522 13.52 178.735 13.6067 178.975 13.66C179.215 13.7133 179.468 13.74 179.735 13.74C180.295 13.74 180.775 13.6667 181.175 13.52C181.575 13.36 181.902 13.1667 182.155 12.94C182.408 12.7 182.595 12.4467 182.715 12.18C182.835 11.9 182.895 11.64 182.895 11.4V9.66ZM187.177 4.66H188.777V6.84H188.817C189.23 6 189.737 5.38 190.337 4.98C190.937 4.58 191.697 4.39333 192.617 4.42V6.22C191.937 6.22 191.357 6.31333 190.877 6.5C190.397 6.68667 190.01 6.96 189.717 7.32C189.424 7.68 189.21 8.12 189.077 8.64C188.944 9.14667 188.877 9.73333 188.877 10.4V15H187.177V4.66ZM194.249 4.66H195.849V6.3H195.889C196.595 5.04667 197.715 4.42 199.249 4.42C199.929 4.42 200.495 4.51333 200.949 4.7C201.402 4.88667 201.769 5.14667 202.049 5.48C202.329 5.81333 202.522 6.21333 202.629 6.68C202.749 7.13333 202.809 7.64 202.809 8.2V15H201.109V8C201.109 7.36 200.922 6.85333 200.549 6.48C200.175 6.10667 199.662 5.92 199.009 5.92C198.489 5.92 198.035 6 197.649 6.16C197.275 6.32 196.962 6.54667 196.709 6.84C196.455 7.13333 196.262 7.48 196.129 7.88C196.009 8.26667 195.949 8.69333 195.949 9.16V15H194.249V4.66Z" fill="url(#paint0_linear_144_16870)"/>
<defs>
<linearGradient id="paint0_linear_144_16870" x1="0" y1="8" x2="205" y2="8" gradientUnits="userSpaceOnUse">
<stop stop-color="#9068C1"/>
<stop offset="1" stop-color="#1BA1E3"/>
</linearGradient>
</defs>
</svg>
