<svg width="62" height="26" viewBox="0 0 58 24" fill="none" xmlns="http://www.w3.org/2000/svg">
<path d="M15.75 19.5L8.25 12L15.75 4.5" stroke="#999999" stroke-width="1.5" stroke-linecap="round" stroke-linejoin="round"/>
<path d="M28.422 11.302H31.082C31.838 11.302 32.3793 11.1713 32.706 10.91C33.042 10.6393 33.21 10.238 33.21 9.706C33.21 9.35133 33.154 9.07133 33.042 8.866C32.93 8.66067 32.776 8.502 32.58 8.39C32.384 8.278 32.1553 8.208 31.894 8.18C31.642 8.14267 31.3713 8.124 31.082 8.124H28.422V11.302ZM27.092 7.004H30.718C30.9327 7.004 31.1613 7.00867 31.404 7.018C31.656 7.018 31.9033 7.032 32.146 7.06C32.3887 7.07867 32.6127 7.11133 32.818 7.158C33.0327 7.20467 33.2147 7.27467 33.364 7.368C33.6907 7.564 33.966 7.83467 34.19 8.18C34.4233 8.52533 34.54 8.95 34.54 9.454C34.54 9.986 34.4093 10.448 34.148 10.84C33.896 11.2227 33.532 11.5073 33.056 11.694V11.722C33.672 11.8527 34.1433 12.1327 34.47 12.562C34.7967 12.9913 34.96 13.514 34.96 14.13C34.96 14.494 34.8947 14.8487 34.764 15.194C34.6333 15.5393 34.4373 15.8473 34.176 16.118C33.924 16.3793 33.6067 16.594 33.224 16.762C32.8507 16.9207 32.4167 17 31.922 17H27.092V7.004ZM28.422 15.88H31.754C32.342 15.88 32.7993 15.7213 33.126 15.404C33.462 15.0867 33.63 14.648 33.63 14.088C33.63 13.7613 33.5693 13.4907 33.448 13.276C33.3267 13.0613 33.1633 12.8933 32.958 12.772C32.762 12.6413 32.5333 12.5527 32.272 12.506C32.0107 12.45 31.74 12.422 31.46 12.422H28.422V15.88ZM42.892 16.972C42.6867 17.0933 42.402 17.154 42.038 17.154C41.73 17.154 41.4827 17.07 41.296 16.902C41.1187 16.7247 41.03 16.44 41.03 16.048C40.7033 16.44 40.3207 16.7247 39.882 16.902C39.4527 17.07 38.986 17.154 38.482 17.154C38.1553 17.154 37.8427 17.1167 37.544 17.042C37.2547 16.9673 37.0027 16.8507 36.788 16.692C36.5733 16.5333 36.4007 16.328 36.27 16.076C36.1487 15.8147 36.088 15.502 36.088 15.138C36.088 14.7273 36.158 14.3913 36.298 14.13C36.438 13.8687 36.62 13.6587 36.844 13.5C37.0773 13.332 37.3387 13.206 37.628 13.122C37.9267 13.038 38.23 12.968 38.538 12.912C38.8647 12.8467 39.1727 12.8 39.462 12.772C39.7607 12.7347 40.022 12.688 40.246 12.632C40.47 12.5667 40.6473 12.478 40.778 12.366C40.9087 12.2447 40.974 12.072 40.974 11.848C40.974 11.5867 40.9227 11.3767 40.82 11.218C40.7267 11.0593 40.6007 10.938 40.442 10.854C40.2927 10.77 40.12 10.714 39.924 10.686C39.7373 10.658 39.5507 10.644 39.364 10.644C38.86 10.644 38.44 10.742 38.104 10.938C37.768 11.1247 37.586 11.484 37.558 12.016H36.368C36.3867 11.568 36.48 11.19 36.648 10.882C36.816 10.574 37.04 10.3267 37.32 10.14C37.6 9.944 37.9173 9.804 38.272 9.72C38.636 9.636 39.0233 9.594 39.434 9.594C39.7607 9.594 40.0827 9.61733 40.4 9.664C40.7267 9.71067 41.0207 9.80867 41.282 9.958C41.5433 10.098 41.7533 10.2987 41.912 10.56C42.0707 10.8213 42.15 11.162 42.15 11.582V15.306C42.15 15.586 42.164 15.7913 42.192 15.922C42.2293 16.0527 42.3413 16.118 42.528 16.118C42.6307 16.118 42.752 16.0947 42.892 16.048V16.972ZM40.96 13.262C40.8107 13.374 40.6147 13.458 40.372 13.514C40.1293 13.5607 39.8727 13.6027 39.602 13.64C39.3407 13.668 39.0747 13.7053 38.804 13.752C38.5333 13.7893 38.2907 13.8547 38.076 13.948C37.8613 14.0413 37.684 14.1767 37.544 14.354C37.4133 14.522 37.348 14.7553 37.348 15.054C37.348 15.25 37.3853 15.418 37.46 15.558C37.544 15.6887 37.6467 15.796 37.768 15.88C37.8987 15.964 38.048 16.0247 38.216 16.062C38.384 16.0993 38.5613 16.118 38.748 16.118C39.14 16.118 39.476 16.0667 39.756 15.964C40.036 15.852 40.2647 15.7167 40.442 15.558C40.6193 15.39 40.75 15.2127 40.834 15.026C40.918 14.83 40.96 14.648 40.96 14.48V13.262ZM48.9135 12.086C48.8202 11.6287 48.6242 11.274 48.3255 11.022C48.0268 10.77 47.6255 10.644 47.1215 10.644C46.6922 10.644 46.3328 10.7233 46.0435 10.882C45.7542 11.0407 45.5208 11.2507 45.3435 11.512C45.1755 11.7733 45.0542 12.0767 44.9795 12.422C44.9048 12.758 44.8675 13.108 44.8675 13.472C44.8675 13.808 44.9048 14.1347 44.9795 14.452C45.0635 14.7693 45.1895 15.054 45.3575 15.306C45.5255 15.5487 45.7448 15.7447 46.0155 15.894C46.2862 16.0433 46.6082 16.118 46.9815 16.118C47.5695 16.118 48.0268 15.964 48.3535 15.656C48.6895 15.348 48.8948 14.914 48.9695 14.354H50.1875C50.0568 15.25 49.7208 15.9407 49.1795 16.426C48.6475 16.9113 47.9195 17.154 46.9955 17.154C46.4448 17.154 45.9548 17.0653 45.5255 16.888C45.1055 16.7107 44.7508 16.4587 44.4615 16.132C44.1815 15.8053 43.9668 15.418 43.8175 14.97C43.6775 14.5127 43.6075 14.0133 43.6075 13.472C43.6075 12.9307 43.6775 12.4267 43.8175 11.96C43.9575 11.484 44.1675 11.0733 44.4475 10.728C44.7368 10.3733 45.0962 10.098 45.5255 9.902C45.9548 9.69667 46.4542 9.594 47.0235 9.594C47.4342 9.594 47.8168 9.64533 48.1715 9.748C48.5355 9.84133 48.8528 9.99067 49.1235 10.196C49.4035 10.4013 49.6322 10.6627 49.8095 10.98C49.9868 11.288 50.0988 11.6567 50.1455 12.086H48.9135ZM51.589 7.004H52.779V12.926L56.083 9.762H57.679L54.809 12.394L57.889 17H56.377L53.899 13.22L52.779 14.256V17H51.589V7.004Z" fill="#999999"/>
</svg>
