<svg width="24" height="18" viewBox="0 0 17 16" fill="none" xmlns="http://www.w3.org/2000/svg">
<g clip-path="url(#clip0_16683_58543)">
<g clip-path="url(#clip1_16683_58543)">
<path d="M6.5 0L5.5 0.25V1H6.5V0ZM6.5 1V2H5.5V1H5.494C4.236 1.015 3.315 0.97 2.562 1.385C2.186 1.592 1.887 1.945 1.722 2.383C1.558 2.821 1.5 3.343 1.5 4V12C1.5 12.658 1.558 13.179 1.723 13.617C1.887 14.056 2.186 14.406 2.563 14.613C3.315 15.029 4.236 14.985 5.494 15H10.5V14H5.5C4.24 13.985 3.413 13.94 3.047 13.738C2.863 13.638 2.757 13.526 2.66 13.266C2.563 13.006 2.5 12.592 2.5 12V7C2.5 6.408 2.563 5.994 2.66 5.734C2.758 5.474 2.863 5.363 3.047 5.262C3.414 5.059 4.242 5.015 5.506 5H11.5C12.76 5.015 13.587 5.06 13.953 5.262C14.137 5.362 14.243 5.474 14.34 5.734C14.437 5.994 14.5 7 14.5 7V10H15.5V4C15.5 3.342 15.44 2.821 15.275 2.383C15.1238 1.96122 14.827 1.6073 14.438 1.385C13.685 0.969 12.764 1.015 11.506 1H11.5V2H10.5V1H6.5ZM10.5 1H11.5V0L10.5 0.25V1ZM13.5 11V13H11.5V14H13.5V16H14.5V14H16.5V13H14.5V11H13.5Z" fill="#B63B6E"/>
</g>
</g>
<defs>
<clipPath id="clip0_16683_58543">
<rect width="16" height="16" fill="white" transform="translate(0.5)"/>
</clipPath>
<clipPath id="clip1_16683_58543">
<rect width="16" height="16" fill="white" transform="translate(0.5)"/>
</clipPath>
</defs>
</svg>
