<svg width="18" height="18" viewBox="0 0 18 18" fill="none" xmlns="http://www.w3.org/2000/svg">
<path fill-rule="evenodd" clip-rule="evenodd" d="M7.50117 1.125H10.5012C10.9137 1.125 11.2512 1.4625 11.2512 1.875C11.2512 2.2875 10.9137 2.625 10.5012 2.625H7.50117C7.08867 2.625 6.75117 2.2875 6.75117 1.875C6.75117 1.4625 7.08867 1.125 7.50117 1.125ZM9.75117 10.125C9.75117 10.5375 9.41367 10.875 9.00117 10.875C8.58867 10.875 8.25117 10.5375 8.25117 10.125V7.125C8.25117 6.7125 8.58867 6.375 9.00117 6.375C9.41367 6.375 9.75117 6.7125 9.75117 7.125V10.125ZM14.2737 5.9175L14.8362 5.355C15.1212 5.07 15.1287 4.5975 14.8362 4.305L14.8287 4.2975C14.5362 4.005 14.0712 4.0125 13.7787 4.2975L13.2162 4.86C12.0537 3.93 10.5912 3.375 9.00117 3.375C5.40117 3.375 2.34117 6.345 2.25117 9.945C2.15367 13.755 5.20617 16.875 9.00117 16.875C12.7362 16.875 15.7512 13.8525 15.7512 10.125C15.7512 8.535 15.1962 7.0725 14.2737 5.9175ZM3.75117 10.125C3.75117 13.0275 6.09867 15.375 9.00117 15.375C11.9037 15.375 14.2512 13.0275 14.2512 10.125C14.2512 7.2225 11.9037 4.875 9.00117 4.875C6.09867 4.875 3.75117 7.2225 3.75117 10.125Z" fill="#6D747A"/>
</svg>
