<svg width="20" height="20" viewBox="0 0 20 20" fill="none" xmlns="http://www.w3.org/2000/svg">
  <g clip-path="url(#clip0_1402_23037)">
    <path d="M12.0717 2.61917C12.2844 2.67899 12.4646 2.82084 12.5727 3.01352C12.6809 3.2062 12.7081 3.43394 12.6483 3.64667L8.95666 16.8033C8.92711 16.9087 8.87709 17.0073 8.80947 17.0933C8.74184 17.1794 8.65792 17.2513 8.56251 17.3049C8.4671 17.3585 8.36206 17.3928 8.25339 17.4059C8.14472 17.4189 8.03454 17.4104 7.92916 17.3808C7.82377 17.3513 7.72524 17.3013 7.63918 17.2336C7.55312 17.166 7.48123 17.0821 7.4276 16.9867C7.37398 16.8913 7.33967 16.7862 7.32664 16.6776C7.31361 16.5689 7.32211 16.4587 7.35166 16.3533L11.0433 3.19667C11.0729 3.09118 11.1229 2.99255 11.1906 2.90642C11.2583 2.82029 11.3422 2.74835 11.4378 2.69472C11.5333 2.64108 11.6384 2.6068 11.7472 2.59383C11.856 2.58087 11.9662 2.58948 12.0717 2.61917ZM6.00582 5.875C6.16205 6.03127 6.24981 6.2432 6.24981 6.46417C6.24981 6.68514 6.16205 6.89706 6.00582 7.05333L3.05999 10L6.00582 12.9458C6.08325 13.0232 6.14468 13.1151 6.1866 13.2162C6.22852 13.3173 6.25012 13.4257 6.25016 13.5351C6.2502 13.6446 6.22868 13.753 6.18682 13.8541C6.14497 13.9553 6.08361 14.0472 6.00624 14.1246C5.92887 14.202 5.83701 14.2634 5.7359 14.3054C5.63479 14.3473 5.52641 14.3689 5.41695 14.3689C5.30749 14.369 5.1991 14.3474 5.09796 14.3056C4.99682 14.2637 4.90492 14.2024 4.82749 14.125L1.29166 10.5892C1.13543 10.4329 1.04767 10.221 1.04767 10C1.04767 9.77903 1.13543 9.56711 1.29166 9.41083L4.82749 5.875C4.98376 5.71877 5.19569 5.63101 5.41666 5.63101C5.63763 5.63101 5.84955 5.71877 6.00582 5.875ZM13.9942 7.05333C13.9146 6.97646 13.8511 6.88451 13.8074 6.78284C13.7637 6.68117 13.7407 6.57182 13.7398 6.46117C13.7388 6.35052 13.7599 6.24079 13.8018 6.13837C13.8437 6.03596 13.9056 5.94291 13.9838 5.86467C14.0621 5.78643 14.1551 5.72455 14.2575 5.68265C14.3599 5.64075 14.4697 5.61966 14.5803 5.62063C14.691 5.62159 14.8003 5.64458 14.902 5.68825C15.0037 5.73192 15.0956 5.79541 15.1725 5.875L18.7083 9.41083C18.8645 9.56711 18.9523 9.77903 18.9523 10C18.9523 10.221 18.8645 10.4329 18.7083 10.5892L15.1725 14.125C15.0161 14.2813 14.8041 14.369 14.583 14.3689C14.362 14.3688 14.15 14.281 13.9937 14.1246C13.8375 13.9682 13.7497 13.7562 13.7498 13.5351C13.7499 13.3141 13.8378 13.1021 13.9942 12.9458L16.94 10L13.9942 7.05333Z" fill="url(#paint0_linear_1402_23037)"/>
  </g>
  <defs>
    <linearGradient id="paint0_linear_1402_23037" x1="1.04767" y1="9.99988" x2="18.9523" y2="9.99988" gradientUnits="userSpaceOnUse">
      <stop stop-color="#9068C1"/>
      <stop offset="1" stop-color="#1BA1E3"/>
    </linearGradient>
    <clipPath id="clip0_1402_23037">
      <rect width="20" height="20" fill="white"/>
    </clipPath>
  </defs>
</svg>