<?xml version="1.0" encoding="UTF-8"?>
<svg xmlns="http://www.w3.org/2000/svg" xmlns:xlink="http://www.w3.org/1999/xlink" width="24px" height="24px" viewBox="0 0 24 24" version="1.1">
<g id="surface1">
<path style=" stroke:none;fill-rule:nonzero;fill:rgb(0%,0%,0%);fill-opacity:1;" d="M 5.359375 2.199219 C 5.101562 2.265625 4.28125 2.757812 3.875 3.089844 C 2.792969 3.984375 2.011719 5.289062 1.710938 6.707031 C 1.53125 7.527344 1.546875 8.820312 1.734375 9.746094 C 1.925781 10.691406 2.199219 11.476562 2.648438 12.375 C 3 13.078125 5.390625 17.1875 5.757812 17.714844 C 7.335938 19.988281 9.492188 21.371094 11.675781 21.507812 C 13.058594 21.59375 14.273438 21.320312 15.375 20.664062 C 15.78125 20.417969 15.890625 20.328125 16.007812 20.136719 C 16.144531 19.914062 16.148438 19.882812 16.144531 19.386719 C 16.144531 18.9375 16.125 18.820312 16.011719 18.515625 C 15.820312 18.007812 15.578125 17.546875 15.140625 16.851562 C 14.488281 15.820312 14.125 15.394531 13.59375 15.050781 C 13.1875 14.785156 12.875 14.703125 12.402344 14.726562 C 11.96875 14.75 11.742188 14.839844 10.96875 15.296875 C 10.5 15.570312 10.460938 15.585938 10.171875 15.585938 C 9.792969 15.585938 9.4375 15.421875 9.125 15.097656 C 8.992188 14.957031 8.539062 14.230469 7.796875 12.9375 C 7.175781 11.867188 6.628906 10.917969 6.582031 10.828125 C 6.460938 10.589844 6.429688 9.90625 6.539062 9.632812 C 6.640625 9.359375 6.777344 9.238281 7.339844 8.90625 L 7.800781 8.632812 L 7.878906 8.761719 C 8 8.960938 12.910156 12.796875 13.285156 12.984375 C 13.585938 13.132812 13.644531 13.148438 14.011719 13.144531 C 14.339844 13.144531 14.460938 13.121094 14.671875 13.023438 C 14.835938 12.945312 16.191406 11.914062 18.328125 10.238281 C 20.199219 8.765625 21.753906 7.550781 21.789062 7.527344 C 21.828125 7.5 21.84375 8.386719 21.84375 11.882812 L 21.84375 16.269531 L 21.726562 16.382812 L 21.613281 16.5 L 19.1875 16.5 C 17.625 16.5 16.691406 16.519531 16.578125 16.550781 C 16.226562 16.648438 16.105469 17.078125 16.355469 17.351562 L 16.492188 17.507812 L 19.132812 17.507812 C 21.742188 17.507812 21.777344 17.507812 21.992188 17.40625 C 22.304688 17.265625 22.613281 16.960938 22.730469 16.6875 L 22.828125 16.453125 L 22.820312 11.5 L 22.804688 6.539062 L 22.679688 6.320312 C 22.519531 6.054688 22.246094 5.832031 21.9375 5.714844 C 21.710938 5.628906 21.464844 5.625 15.125 5.625 L 8.550781 5.625 L 8.136719 4.8125 C 7.632812 3.824219 7.304688 3.324219 6.847656 2.84375 C 6.347656 2.320312 5.808594 2.085938 5.359375 2.199219 Z M 5.886719 3.320312 C 6.257812 3.585938 6.660156 4.15625 7.1875 5.15625 C 7.597656 5.945312 7.785156 6.492188 7.796875 6.914062 C 7.804688 7.460938 7.757812 7.507812 6.660156 8.136719 C 5.957031 8.539062 5.667969 8.90625 5.503906 9.59375 C 5.410156 9.992188 5.4375 10.648438 5.570312 11.015625 C 5.652344 11.25 7.851562 15.09375 8.160156 15.546875 C 8.457031 15.976562 9.050781 16.382812 9.585938 16.523438 C 9.945312 16.617188 10.484375 16.613281 10.765625 16.519531 C 10.890625 16.476562 11.269531 16.285156 11.601562 16.085938 C 12.320312 15.675781 12.546875 15.625 12.890625 15.796875 C 13.332031 16.023438 13.808594 16.585938 14.429688 17.609375 C 14.855469 18.320312 15.085938 18.835938 15.160156 19.261719 C 15.214844 19.609375 15.21875 19.609375 14.652344 19.917969 C 13.3125 20.65625 11.492188 20.726562 10.027344 20.089844 C 8.703125 19.523438 7.457031 18.4375 6.519531 17.042969 C 6.214844 16.589844 3.816406 12.453125 3.554688 11.929688 C 2.4375 9.703125 2.277344 7.386719 3.117188 5.648438 C 3.390625 5.085938 3.652344 4.730469 4.191406 4.195312 C 4.574219 3.8125 4.820312 3.613281 5.132812 3.4375 C 5.367188 3.300781 5.585938 3.1875 5.628906 3.1875 C 5.671875 3.1875 5.789062 3.25 5.886719 3.320312 Z M 21.253906 6.652344 C 21.191406 6.707031 14.851562 11.6875 14.539062 11.921875 C 14.246094 12.144531 13.9375 12.203125 13.695312 12.074219 C 13.617188 12.03125 12.449219 11.136719 11.109375 10.082031 C 9.769531 9.027344 8.628906 8.136719 8.578125 8.105469 C 8.488281 8.039062 8.488281 8.035156 8.628906 7.75 C 8.75 7.507812 8.78125 7.382812 8.804688 7.03125 L 8.828125 6.609375 L 15.0625 6.609375 C 18.699219 6.609375 21.28125 6.628906 21.253906 6.652344 Z M 21.253906 6.652344 "/>
</g>
</svg>
