<svg width="24" height="24" viewBox="0 0 24 24" fill="none" xmlns="http://www.w3.org/2000/svg">
<g clip-path="url(#clip0_180_7270)">
<path d="M13.0166 12V12.15H13.1666H16.3045L11.9999 16.4545L7.69538 12.15H10.8333H10.9833V12V7.48333H13.0166V12ZM21.4833 12C21.4833 6.77215 17.2278 2.51666 11.9999 2.51666C6.77208 2.51666 2.51659 6.77215 2.51659 12C2.51659 17.2278 6.77208 21.4833 11.9999 21.4833C17.2278 21.4833 21.4833 17.2278 21.4833 12ZM0.483252 12C0.483252 5.64284 5.64276 0.483328 11.9999 0.483328C18.3571 0.483328 23.5166 5.64284 23.5166 12C23.5166 18.3572 18.3571 23.5167 11.9999 23.5167C5.64276 23.5167 0.483252 18.3572 0.483252 12Z" fill="#CCCCCC" stroke="white" stroke-width="0.3"/>
</g>
<defs>
<clipPath id="clip0_180_7270">
<rect width="28" height="28" fill="white" transform="translate(-2 -2)"/>
</clipPath>
</defs>
</svg>
