<svg width="10" height="20" viewBox="0 0 10 20" fill="none" xmlns="http://www.w3.org/2000/svg">
<path d="M6.05934 4.77243C6.05934 4.97712 6.05934 5.64426 6.05934 6.59208H9.31809L8.96477 9.49704H6.05934C6.05934 13.977 6.05934 19.9804 6.05934 19.9804H2.20285C2.20285 19.9804 2.20285 14.0565 2.20285 9.49704H0.193359V6.59208H2.20285C2.20285 5.44004 2.20285 4.62086 2.20285 4.39278C2.20285 3.30606 2.12098 2.79044 2.58273 1.94833C3.04473 1.10626 4.34785 -0.00679082 6.60172 0.020006C8.85613 0.0477795 9.80641 0.264654 9.80641 0.264654L9.31809 3.36063C9.31809 3.36063 7.87852 2.98051 7.17191 3.11598C6.46625 3.25149 6.05934 3.68618 6.05934 4.77243Z" fill="white"/>
</svg>
