<?xml version="1.0" encoding="UTF-8"?>
<svg xmlns="http://www.w3.org/2000/svg" xmlns:xlink="http://www.w3.org/1999/xlink" width="24px" height="24px" viewBox="0 0 24 24" version="1.1">
<g id="surface1">
<path style=" stroke:none;fill-rule:nonzero;fill:rgb(0%,0%,0%);fill-opacity:1;" d="M 4.695312 1.363281 C 2.339844 1.671875 0.453125 3.507812 0.0703125 5.859375 C 0.015625 6.226562 0 6.828125 0 9.265625 C 0 11.117188 0.0195312 12.359375 0.0507812 12.589844 C 0.367188 14.867188 2.128906 16.71875 4.398438 17.160156 L 4.6875 17.21875 L 4.6875 19.671875 C 4.6875 22.117188 4.6875 22.140625 4.789062 22.316406 C 4.898438 22.507812 5.183594 22.6875 5.382812 22.6875 C 5.671875 22.6875 5.855469 22.523438 8.484375 19.898438 L 11.132812 17.25 L 15.097656 17.25 C 18.402344 17.25 19.132812 17.242188 19.46875 17.179688 C 21.792969 16.777344 23.554688 15.003906 23.929688 12.703125 C 24.03125 12.0625 24.03125 6.578125 23.929688 5.890625 C 23.761719 4.761719 23.234375 3.730469 22.40625 2.902344 C 21.664062 2.160156 20.851562 1.707031 19.78125 1.4375 C 19.386719 1.339844 19.339844 1.339844 12.1875 1.332031 C 8.230469 1.328125 4.859375 1.339844 4.695312 1.363281 Z M 19.289062 2.789062 C 20.828125 3.054688 22.011719 4.148438 22.460938 5.703125 C 22.570312 6.070312 22.570312 6.085938 22.570312 9.304688 L 22.570312 12.539062 L 22.4375 12.953125 C 21.964844 14.464844 20.84375 15.476562 19.320312 15.777344 C 19.035156 15.828125 18.238281 15.84375 14.832031 15.84375 C 11.128906 15.84375 10.667969 15.851562 10.53125 15.917969 C 10.449219 15.960938 9.417969 16.953125 8.242188 18.132812 L 6.09375 20.273438 L 6.09375 18.332031 C 6.09375 16.429688 6.09375 16.390625 5.992188 16.214844 C 5.859375 15.984375 5.585938 15.84375 5.265625 15.84375 C 4.738281 15.84375 4.007812 15.640625 3.472656 15.347656 C 2.390625 14.75 1.632812 13.65625 1.453125 12.429688 C 1.414062 12.1875 1.40625 11.101562 1.414062 9.046875 L 1.429688 6.023438 L 1.5625 5.609375 C 1.632812 5.382812 1.742188 5.085938 1.8125 4.953125 C 2.382812 3.828125 3.464844 3.015625 4.671875 2.792969 C 5.246094 2.691406 18.699219 2.6875 19.289062 2.789062 Z M 19.289062 2.789062 "/>
<path style=" stroke:none;fill-rule:nonzero;fill:rgb(0%,0%,0%);fill-opacity:1;" d="M 11.265625 6.003906 C 10.988281 6.042969 10.757812 6.15625 10.636719 6.328125 C 10.53125 6.472656 8.8125 12.113281 8.8125 12.3125 C 8.8125 12.605469 9.421875 12.941406 9.835938 12.871094 C 10.101562 12.828125 10.191406 12.695312 10.363281 12.03125 L 10.519531 11.4375 L 12.5 11.4375 L 12.660156 12.03125 C 12.867188 12.796875 12.917969 12.867188 13.320312 12.867188 C 13.683594 12.863281 14.054688 12.683594 14.179688 12.449219 C 14.253906 12.304688 14.253906 12.296875 13.359375 9.375 C 12.867188 7.761719 12.425781 6.394531 12.378906 6.328125 C 12.191406 6.070312 11.757812 5.945312 11.265625 6.003906 Z M 11.835938 9 C 12.003906 9.632812 12.15625 10.1875 12.167969 10.226562 C 12.191406 10.308594 12.140625 10.3125 11.507812 10.3125 C 10.972656 10.3125 10.824219 10.296875 10.835938 10.25 C 10.851562 10.222656 11.007812 9.660156 11.179688 9.007812 C 11.351562 8.359375 11.503906 7.832031 11.511719 7.835938 C 11.515625 7.847656 11.664062 8.367188 11.835938 9 Z M 11.835938 9 "/>
<path style=" stroke:none;fill-rule:nonzero;fill:rgb(0%,0%,0%);fill-opacity:1;" d="M 4.9375 6.117188 C 4.855469 6.148438 4.765625 6.21875 4.738281 6.277344 C 4.703125 6.335938 4.6875 7.34375 4.6875 9.488281 L 4.6875 12.605469 L 4.808594 12.699219 C 5.15625 12.96875 5.839844 12.921875 6.078125 12.613281 C 6.121094 12.558594 6.136719 12.195312 6.140625 11.28125 L 6.140625 10.03125 L 6.867188 10.03125 C 7.84375 10.03125 7.96875 9.960938 7.96875 9.421875 C 7.96875 9.242188 7.941406 9.164062 7.847656 9.050781 L 7.726562 8.90625 L 6.140625 8.90625 L 6.140625 7.3125 L 7.398438 7.3125 C 8.789062 7.3125 8.808594 7.308594 8.933594 7.003906 C 9.066406 6.6875 8.976562 6.207031 8.773438 6.097656 C 8.621094 6.015625 5.128906 6.03125 4.9375 6.117188 Z M 4.9375 6.117188 "/>
<path style=" stroke:none;fill-rule:nonzero;fill:rgb(0%,0%,0%);fill-opacity:1;" d="M 16.679688 6.121094 C 15.945312 6.296875 15.449219 6.792969 15.257812 7.53125 C 15.15625 7.929688 15.15625 11.0625 15.257812 11.460938 C 15.453125 12.207031 15.96875 12.695312 16.726562 12.847656 L 17.015625 12.910156 L 17.015625 13.226562 C 17.015625 13.625 17.09375 13.800781 17.316406 13.875 C 17.441406 13.917969 17.507812 13.914062 17.640625 13.859375 C 17.859375 13.765625 17.878906 13.71875 17.90625 13.292969 L 17.929688 12.917969 L 18.203125 12.859375 C 19.050781 12.664062 19.597656 12.09375 19.730469 11.25 C 19.808594 10.773438 19.796875 8.011719 19.714844 7.636719 C 19.542969 6.820312 19.046875 6.308594 18.230469 6.117188 C 17.855469 6.03125 17.039062 6.03125 16.679688 6.121094 Z M 17.890625 7.402344 C 18.03125 7.46875 18.117188 7.550781 18.195312 7.695312 C 18.300781 7.894531 18.304688 7.941406 18.320312 9.320312 C 18.328125 10.257812 18.3125 10.824219 18.28125 10.992188 C 18.230469 11.230469 18.046875 11.53125 17.949219 11.53125 C 17.925781 11.53125 17.90625 11.40625 17.90625 11.25 C 17.90625 10.878906 17.785156 10.734375 17.464844 10.734375 C 17.292969 10.734375 17.242188 10.757812 17.136719 10.878906 C 17.039062 10.996094 17.015625 11.070312 17.015625 11.277344 C 17.015625 11.550781 16.984375 11.582031 16.855469 11.441406 C 16.664062 11.230469 16.644531 11.054688 16.640625 9.476562 C 16.640625 7.882812 16.65625 7.765625 16.867188 7.527344 C 17.0625 7.308594 17.546875 7.246094 17.890625 7.402344 Z M 17.890625 7.402344 "/>
</g>
</svg>
