<svg width="25" height="24" viewBox="0 0 25 24" fill="none" xmlns="http://www.w3.org/2000/svg">
<g clip-path="url(#clip0_4776_990)">
<path fill-rule="evenodd" clip-rule="evenodd" d="M12.667 3C17.6376 3 21.667 7.02944 21.667 12V18C21.667 19.6569 20.3239 21 18.667 21H17.285C16.5655 21 15.9046 20.6138 15.5498 19.9945C14.6142 20.6335 13.583 21 12.667 21C11.751 21 10.7198 20.6335 9.78421 19.9944C9.42941 20.6138 8.76851 21 8.04896 21H6.66699C5.01014 21 3.66699 19.6569 3.66699 18V12C3.66699 7.02944 7.69643 3 12.667 3ZM12.667 4.5C8.801 4.5 5.16699 8.13401 5.16699 12V18C5.16699 18.5523 6.11471 19.5 6.66699 19.5H7.10747C7.65821 19.5 8.1357 19.119 8.25795 18.582C7.32814 17.4286 6.66699 15.8799 6.66699 14C6.66699 13.2091 6.80043 12.4256 7.04035 11.6879C7.1779 11.265 7.57819 10.9837 8.02268 10.9977C9.52724 11.0449 10.9824 10.3183 11.8494 9.08727C12.0367 8.82129 12.3417 8.66304 12.667 8.66304C12.9923 8.66304 13.2973 8.8213 13.4846 9.08728C14.3515 10.3184 15.8067 11.0449 17.3113 10.9977C17.7558 10.9838 18.1561 11.2651 18.2937 11.688C18.5336 12.4256 18.667 13.2091 18.667 14C18.667 15.8799 18.0059 17.4286 17.076 18.582C17.1983 19.119 17.6757 19.5 18.2265 19.5H18.667C19.2193 19.5 20.167 18.5523 20.167 18V12C20.167 8.13401 16.533 4.5 12.667 4.5ZM12.667 10.5C11.6354 11.4897 9.67489 12.8615 8.16699 13C8.09999 13.3407 8.25795 13.6579 8.25795 14C8.25795 15.6183 8.93482 17.1447 9.78421 18C10.6646 18.8865 12.0621 19.5 12.667 19.5C13.2719 19.5 14.6694 18.8865 15.5498 18C16.3991 17.1447 17.167 15.6183 17.167 14C17.167 13.6579 17.143 13.313 17.076 12.9724C15.5681 12.8338 13.6985 11.4898 12.667 10.5Z" fill="#6D747A"/>
</g>
<defs>
<clipPath id="clip0_4776_990">
<rect width="24" height="24" fill="white" transform="translate(0.666992)"/>
</clipPath>
</defs>
</svg>
