<svg width="25" height="24" viewBox="0 0 25 24" fill="none" xmlns="http://www.w3.org/2000/svg">
<g clip-path="url(#clip0_3833_15586)">
<path d="M13.7 2.65C12.9889 2.11667 12.0111 2.11667 11.3 2.65L4.3 7.9C3.79639 8.27771 3.5 8.87049 3.5 9.5V19C3.5 20.1046 4.39543 21 5.5 21H9.4C10.0075 21 10.5 20.5075 10.5 19.9V15C10.5 13.8954 11.3954 13 12.5 13C13.6046 13 14.5 13.8954 14.5 15V19.9C14.5 20.5075 14.9925 21 15.6 21H19.5C20.6046 21 21.5 20.1046 21.5 19V9.5C21.5 8.87049 21.2036 8.27771 20.7 7.9L13.7 2.65Z" fill="#08090A"/>
</g>
<defs>
<clipPath id="clip0_3833_15586">
<rect width="24" height="24" fill="white" transform="translate(0.5)"/>
</clipPath>
</defs>
</svg>
