<svg width="18" height="16" viewBox="0 0 18 16" fill="none" xmlns="http://www.w3.org/2000/svg">
<path d="M16.5 8C16.5 6.96447 15.6605 6.125 14.625 6.125H11.5C11.5 7.50571 10.3807 8.625 9 8.625C7.61929 8.625 6.5 7.50571 6.5 6.125H3.375C2.33947 6.125 1.5 6.96447 1.5 8M16.5 8V13C16.5 14.0355 15.6605 14.875 14.625 14.875H3.375C2.33947 14.875 1.5 14.0355 1.5 13V8M16.5 8V5.5M1.5 8V5.5M16.5 5.5C16.5 4.46447 15.6605 3.625 14.625 3.625H3.375C2.33947 3.625 1.5 4.46447 1.5 5.5M16.5 5.5V3C16.5 1.96447 15.6605 1.125 14.625 1.125H3.375C2.33947 1.125 1.5 1.96447 1.5 3V5.5" stroke="#737780" stroke-width="1.5" stroke-linecap="round" stroke-linejoin="round"/>
</svg>
