<svg width="18" height="18" viewBox="0 0 18 18" fill="none" xmlns="http://www.w3.org/2000/svg">
<path d="M11.5 14.9396C12.1941 15.1417 12.9281 15.25 13.6875 15.25C14.9198 15.25 16.0854 14.9647 17.122 14.4565C17.124 14.4088 17.125 14.3607 17.125 14.3125C17.125 12.414 15.5859 10.875 13.6875 10.875C12.5058 10.875 11.4633 11.4713 10.8446 12.3793M11.5 14.9396V14.9375C11.5 14.0101 11.2624 13.1382 10.8446 12.3793M11.5 14.9396C11.5 14.9693 11.4997 14.999 11.4992 15.0286C9.9478 15.9627 8.1304 16.5 6.1875 16.5C4.2446 16.5 2.4272 15.9627 0.875767 15.0286C0.875257 14.9983 0.875 14.9679 0.875 14.9375C0.875 12.0035 3.25349 9.625 6.1875 9.625C8.1941 9.625 9.94086 10.7375 10.8446 12.3793M9 4.3125C9 5.8658 7.7408 7.125 6.1875 7.125C4.6342 7.125 3.375 5.8658 3.375 4.3125C3.375 2.7592 4.6342 1.5 6.1875 1.5C7.7408 1.5 9 2.7592 9 4.3125ZM15.875 6.1875C15.875 7.39562 14.8956 8.375 13.6875 8.375C12.4794 8.375 11.5 7.39562 11.5 6.1875C11.5 4.97938 12.4794 4 13.6875 4C14.8956 4 15.875 4.97938 15.875 6.1875Z" stroke="#737780" stroke-width="1.5" stroke-linecap="round" stroke-linejoin="round"/>
</svg>
