<svg width="21" height="20" viewBox="0 0 21 20" fill="none" xmlns="http://www.w3.org/2000/svg">
<path d="M2.375 17.5H18.625M3.625 2.5V17.5M12.375 2.5V17.5M17.375 6.25V17.5M6.125 5.625H6.75M6.125 8.125H6.75M6.125 10.625H6.75M9.25 5.625H9.875M9.25 8.125H9.875M9.25 10.625H9.875M6.125 17.5V14.6875C6.125 14.1697 6.54473 13.75 7.0625 13.75H8.9375C9.45527 13.75 9.875 14.1697 9.875 14.6875V17.5M3 2.5H13M12.375 6.25H18M14.875 9.375H14.8813V9.38125H14.875V9.375ZM14.875 11.875H14.8813V11.8813H14.875V11.875ZM14.875 14.375H14.8813V14.3813H14.875V14.375Z" stroke="#CCCCCC" stroke-width="1.5" stroke-linecap="round" stroke-linejoin="round"/>
</svg>
