<svg width="21" height="20" viewBox="0 0 21 20" fill="none" xmlns="http://www.w3.org/2000/svg">
<path d="M4.04944 8.45548C3.8224 10.1922 3.68449 11.9569 3.64044 13.7449C6.05376 14.7525 8.34911 15.9862 10.5 17.4196C12.6509 15.9862 14.9462 14.7525 17.3596 13.7449C17.3155 11.9569 17.1776 10.1922 16.9506 8.45551M4.04944 8.45548C3.31968 8.21019 2.58108 7.98417 1.83423 7.77802C4.53872 5.88233 7.43951 4.2476 10.5 2.9104C13.5606 4.2476 16.4614 5.88234 19.1659 7.77803C18.419 7.98419 17.6803 8.21021 16.9506 8.45551M4.04944 8.45548C6.2888 9.20819 8.44483 10.1423 10.5 11.2405C12.5552 10.1424 14.7112 9.20821 16.9506 8.45551M6.125 12.4999C6.47018 12.4999 6.75 12.2201 6.75 11.8749C6.75 11.5298 6.47018 11.2499 6.125 11.2499C5.77982 11.2499 5.5 11.5298 5.5 11.8749C5.5 12.2201 5.77982 12.4999 6.125 12.4999ZM6.125 12.4999V9.437C7.53456 8.56118 8.99469 7.75906 10.5 7.03602M4.66053 16.6605C5.63684 15.6842 6.125 14.4045 6.125 13.1249V11.8749" stroke="#CCCCCC" stroke-width="1.5" stroke-linecap="round" stroke-linejoin="round"/>
</svg>
