<svg width="21" height="20" viewBox="0 0 21 20" fill="none" xmlns="http://www.w3.org/2000/svg">
<path d="M10.25 2.33746C10.3289 2.30304 10.414 2.28528 10.5 2.28528C10.5861 2.28528 10.6712 2.30304 10.75 2.33746C13.8317 3.68446 16.7713 5.3357 19.525 7.26662C19.6221 7.33468 19.6978 7.42893 19.7433 7.53837C19.7888 7.64781 19.8022 7.76794 19.7821 7.88474C19.7619 8.00154 19.7089 8.11019 19.6293 8.19802C19.5497 8.28585 19.4468 8.34924 19.3325 8.38079C16.4737 9.17037 13.7074 10.2632 11.0809 11.6408L11.0784 11.6425C10.9834 11.6925 10.8892 11.7416 10.795 11.7925C10.7044 11.8409 10.6032 11.8662 10.5004 11.8662C10.3977 11.8662 10.2965 11.8409 10.2059 11.7925C9.07933 11.1913 7.92621 10.6412 6.75003 10.1441V9.95746C6.75003 9.84829 6.80586 9.75079 6.89336 9.69829C8.15117 8.93605 9.44519 8.23523 10.7709 7.59829C10.9203 7.52646 11.035 7.39822 11.0899 7.24178C11.1447 7.08535 11.1352 6.91353 11.0634 6.76412C10.9915 6.61472 10.8633 6.49997 10.7069 6.44511C10.5504 6.39026 10.3786 6.39979 10.2292 6.47162C8.86735 7.12602 7.53801 7.84604 6.24586 8.62912C6.06203 8.74064 5.90344 8.88923 5.7802 9.06542C5.65695 9.2416 5.57175 9.44153 5.53003 9.65246C4.26437 9.16545 2.9756 8.74078 1.66836 8.37996C1.55411 8.34841 1.45118 8.28502 1.37159 8.19719C1.292 8.10936 1.23902 8.00071 1.21884 7.88391C1.19866 7.76711 1.21211 7.64698 1.25762 7.53754C1.30313 7.42809 1.37882 7.33384 1.47586 7.26579C4.22935 5.33522 7.16864 3.68426 10.25 2.33746Z" fill="#2E6BE5"/>
<path d="M11.3833 12.8942C13.4302 11.8006 15.5675 10.8855 17.7716 10.1592C17.8833 11.3375 17.955 12.5283 17.9841 13.7292C17.9874 13.855 17.9525 13.979 17.8841 14.0847C17.8157 14.1904 17.7169 14.273 17.6008 14.3217C15.2385 15.3083 12.9767 16.52 10.8466 17.94C10.744 18.0084 10.6234 18.0449 10.5 18.0449C10.3766 18.0449 10.256 18.0084 10.1533 17.94C8.0235 16.52 5.76196 15.3083 3.39997 14.3217C3.2838 14.2732 3.18498 14.1908 3.11643 14.0852C3.04788 13.9796 3.01281 13.8558 3.0158 13.73C3.04497 12.5283 3.11663 11.3383 3.2283 10.1583C3.9958 10.4117 4.7533 10.6867 5.49997 10.9833V12.0417C5.31991 12.1454 5.16856 12.2924 5.05961 12.4693C4.95065 12.6463 4.88752 12.8476 4.87594 13.0551C4.86436 13.2626 4.90469 13.4697 4.99327 13.6576C5.08186 13.8456 5.21591 14.0085 5.3833 14.1317C5.3083 14.4483 5.1983 14.7592 5.05247 15.0567C5.42913 15.2342 5.8033 15.4183 6.17413 15.6067C6.38317 15.1815 6.53745 14.7315 6.6333 14.2675C6.84404 14.1738 7.02475 14.0236 7.15543 13.8336C7.28611 13.6436 7.36166 13.4211 7.37374 13.1908C7.38582 12.9604 7.33394 12.7313 7.22385 12.5286C7.11376 12.326 6.94975 12.1577 6.74997 12.0425V11.505C7.72339 11.9302 8.67969 12.3936 9.61663 12.8942C9.88844 13.0393 10.1918 13.1153 10.5 13.1153C10.8081 13.1153 11.1115 13.0393 11.3833 12.8942Z" fill="#2E6BE5"/>
<path d="M4.2183 16.2183C4.5683 15.8691 4.8458 15.4766 5.05163 15.0558C5.42913 15.2341 5.8033 15.4183 6.17413 15.6075C5.90147 16.1613 5.53939 16.6664 5.10247 17.1025C4.98399 17.2129 4.82728 17.273 4.66537 17.2701C4.50345 17.2672 4.34896 17.2016 4.23445 17.0871C4.11994 16.9726 4.05435 16.8181 4.05149 16.6562C4.04863 16.4943 4.10873 16.3376 4.21913 16.2191L4.2183 16.2183Z" fill="#2E6BE5"/>
</svg>
