<svg width="14" height="18" viewBox="0 0 14 18" fill="none" xmlns="http://www.w3.org/2000/svg">
<path d="M10.75 7.75V4.625C10.75 3.63044 10.3549 2.67661 9.65165 1.97335C8.94839 1.27009 7.99456 0.875 7 0.875C6.00544 0.875 5.05161 1.27009 4.34835 1.97335C3.64509 2.67661 3.25 3.63044 3.25 4.625V7.75M2.625 17.125H11.375C11.8723 17.125 12.3492 16.9275 12.7008 16.5758C13.0525 16.2242 13.25 15.7473 13.25 15.25V9.625C13.25 9.12772 13.0525 8.65081 12.7008 8.29917C12.3492 7.94754 11.8723 7.75 11.375 7.75H2.625C2.12772 7.75 1.65081 7.94754 1.29917 8.29917C0.947544 8.65081 0.75 9.12772 0.75 9.625V15.25C0.75 15.7473 0.947544 16.2242 1.29917 16.5758C1.65081 16.9275 2.12772 17.125 2.625 17.125Z" stroke-width="1.5" stroke-linecap="round" stroke-linejoin="round"/>
</svg>
