<svg width="24" height="24" viewBox="0 0 24 24" fill="none" xmlns="http://www.w3.org/2000/svg">
<g clip-path="url(#clip0_180_7523)">
<circle cx="12" cy="12" r="12" fill="#FAFAFA"/>
<g clip-path="url(#clip1_180_7523)">
<path d="M15.75 9.5H15.125V8.25C15.125 6.525 13.725 5.125 12 5.125C10.275 5.125 8.875 6.525 8.875 8.25V9.5H8.25C7.5625 9.5 7 10.0625 7 10.75V17C7 17.6875 7.5625 18.25 8.25 18.25H15.75C16.4375 18.25 17 17.6875 17 17V10.75C17 10.0625 16.4375 9.5 15.75 9.5ZM10.125 8.25C10.125 7.2125 10.9625 6.375 12 6.375C13.0375 6.375 13.875 7.2125 13.875 8.25V9.5H10.125V8.25ZM15.75 17H8.25V10.75H15.75V17ZM12 15.125C12.6875 15.125 13.25 14.5625 13.25 13.875C13.25 13.1875 12.6875 12.625 12 12.625C11.3125 12.625 10.75 13.1875 10.75 13.875C10.75 14.5625 11.3125 15.125 12 15.125Z" fill="#999999"/>
</g>
</g>
<defs>
<clipPath id="clip0_180_7523">
<rect width="24" height="24" fill="white"/>
</clipPath>
<clipPath id="clip1_180_7523">
<rect width="15" height="15" fill="white" transform="translate(4.5 4.5)"/>
</clipPath>
</defs>
</svg>
