<svg xmlns="http://www.w3.org/2000/svg"  viewBox="0 0 24 24" width="24px" height="24px"><path d="M 12 2 C 8.6983746 2 6 4.6983746 6 8 L 6 9 L 5.5 9 C 4.1309372 9 3 10.130937 3 11.5 L 3 19.5 C 3 20.869063 4.1309372 22 5.5 22 L 18.5 22 C 19.869063 22 21 20.869063 21 19.5 L 21 11.5 C 21 10.130937 19.869063 9 18.5 9 L 18 9 L 18 8 C 18 4.6983746 15.301625 2 12 2 z M 12 4 C 14.220375 4 16 5.7796254 16 8 L 16 9 L 8 9 L 8 8 C 8 5.7796254 9.7796254 4 12 4 z M 5.5 11 L 6.8320312 11 A 1.0001 1.0001 0 0 0 7.1582031 11 L 16.832031 11 A 1.0001 1.0001 0 0 0 17.158203 11 L 18.5 11 C 18.786937 11 19 11.213063 19 11.5 L 19 19.5 C 19 19.786937 18.786937 20 18.5 20 L 5.5 20 C 5.2130628 20 5 19.786937 5 19.5 L 5 11.5 C 5 11.213063 5.2130628 11 5.5 11 z"/></svg>