<svg width="105" height="24" viewBox="0 0 105 24" fill="none" xmlns="http://www.w3.org/2000/svg">
<path d="M15.75 19.5L8.25 12L15.75 4.5" stroke="#999999" stroke-width="1.5" stroke-linecap="round" stroke-linejoin="round"/>
<path d="M27.078 7.004H28.492L33.756 15.11H33.784V7.004H35.044V17H33.588L28.366 8.978H28.338V17H27.078V7.004ZM37.8675 13.388C37.8675 13.8267 37.9235 14.2187 38.0355 14.564C38.1568 14.9 38.3202 15.1847 38.5255 15.418C38.7308 15.642 38.9688 15.8147 39.2395 15.936C39.5195 16.0573 39.8135 16.118 40.1215 16.118C40.4295 16.118 40.7188 16.0573 40.9895 15.936C41.2695 15.8147 41.5122 15.642 41.7175 15.418C41.9228 15.1847 42.0815 14.9 42.1935 14.564C42.3148 14.2187 42.3755 13.8267 42.3755 13.388C42.3755 12.9493 42.3148 12.562 42.1935 12.226C42.0815 11.8807 41.9228 11.5913 41.7175 11.358C41.5122 11.1247 41.2695 10.9473 40.9895 10.826C40.7188 10.7047 40.4295 10.644 40.1215 10.644C39.8135 10.644 39.5195 10.7047 39.2395 10.826C38.9688 10.9473 38.7308 11.1247 38.5255 11.358C38.3202 11.5913 38.1568 11.8807 38.0355 12.226C37.9235 12.562 37.8675 12.9493 37.8675 13.388ZM36.6075 13.388C36.6075 12.856 36.6822 12.3613 36.8315 11.904C36.9808 11.4373 37.2048 11.036 37.5035 10.7C37.8022 10.3547 38.1708 10.084 38.6095 9.888C39.0482 9.692 39.5522 9.594 40.1215 9.594C40.7002 9.594 41.2042 9.692 41.6335 9.888C42.0722 10.084 42.4408 10.3547 42.7395 10.7C43.0382 11.036 43.2622 11.4373 43.4115 11.904C43.5608 12.3613 43.6355 12.856 43.6355 13.388C43.6355 13.92 43.5608 14.4147 43.4115 14.872C43.2622 15.3293 43.0382 15.7307 42.7395 16.076C42.4408 16.412 42.0722 16.678 41.6335 16.874C41.2042 17.0607 40.7002 17.154 40.1215 17.154C39.5522 17.154 39.0482 17.0607 38.6095 16.874C38.1708 16.678 37.8022 16.412 37.5035 16.076C37.2048 15.7307 36.9808 15.3293 36.8315 14.872C36.6822 14.4147 36.6075 13.92 36.6075 13.388ZM46.6906 9.762H48.1326V10.812H46.6906V15.306C46.6906 15.446 46.6999 15.558 46.7186 15.642C46.7466 15.726 46.7932 15.7913 46.8586 15.838C46.9239 15.8847 47.0126 15.9173 47.1246 15.936C47.2459 15.9453 47.3999 15.95 47.5866 15.95H48.1326V17H47.2226C46.9146 17 46.6486 16.9813 46.4246 16.944C46.2099 16.8973 46.0326 16.818 45.8926 16.706C45.7619 16.594 45.6639 16.4353 45.5986 16.23C45.5332 16.0247 45.5006 15.754 45.5006 15.418V10.812H44.2686V9.762H45.5006V7.592H46.6906V9.762ZM50.7146 8.46H49.5246V7.004H50.7146V8.46ZM49.5246 9.762H50.7146V17H49.5246V9.762ZM56.7721 17V9.762H57.9621V17H56.7721ZM56.7721 8.46V7.004H57.9621V8.46H56.7721ZM53.0481 10.812H51.8301V9.762H53.0481V8.684C53.0481 8.096 53.2161 7.65267 53.5521 7.354C53.8974 7.046 54.3968 6.892 55.0501 6.892C55.1621 6.892 55.2881 6.90133 55.4281 6.92C55.5774 6.93867 55.7081 6.96667 55.8201 7.004V8.04C55.7174 8.00267 55.6054 7.97933 55.4841 7.97C55.3628 7.95133 55.2508 7.942 55.1481 7.942C54.8588 7.942 54.6348 7.998 54.4761 8.11C54.3174 8.222 54.2381 8.43667 54.2381 8.754V9.762H55.6381V10.812H54.2381V17H53.0481V10.812ZM64.7182 12.086C64.6249 11.6287 64.4289 11.274 64.1302 11.022C63.8315 10.77 63.4302 10.644 62.9262 10.644C62.4969 10.644 62.1375 10.7233 61.8482 10.882C61.5589 11.0407 61.3255 11.2507 61.1482 11.512C60.9802 11.7733 60.8589 12.0767 60.7842 12.422C60.7095 12.758 60.6722 13.108 60.6722 13.472C60.6722 13.808 60.7095 14.1347 60.7842 14.452C60.8682 14.7693 60.9942 15.054 61.1622 15.306C61.3302 15.5487 61.5495 15.7447 61.8202 15.894C62.0909 16.0433 62.4129 16.118 62.7862 16.118C63.3742 16.118 63.8315 15.964 64.1582 15.656C64.4942 15.348 64.6995 14.914 64.7742 14.354H65.9922C65.8615 15.25 65.5255 15.9407 64.9842 16.426C64.4522 16.9113 63.7242 17.154 62.8002 17.154C62.2495 17.154 61.7595 17.0653 61.3302 16.888C60.9102 16.7107 60.5555 16.4587 60.2662 16.132C59.9862 15.8053 59.7715 15.418 59.6222 14.97C59.4822 14.5127 59.4122 14.0133 59.4122 13.472C59.4122 12.9307 59.4822 12.4267 59.6222 11.96C59.7622 11.484 59.9722 11.0733 60.2522 10.728C60.5415 10.3733 60.9009 10.098 61.3302 9.902C61.7595 9.69667 62.2589 9.594 62.8282 9.594C63.2389 9.594 63.6215 9.64533 63.9762 9.748C64.3402 9.84133 64.6575 9.99067 64.9282 10.196C65.2082 10.4013 65.4369 10.6627 65.6142 10.98C65.7915 11.288 65.9035 11.6567 65.9502 12.086H64.7182ZM73.7357 16.972C73.5304 17.0933 73.2457 17.154 72.8817 17.154C72.5737 17.154 72.3264 17.07 72.1397 16.902C71.9624 16.7247 71.8737 16.44 71.8737 16.048C71.5471 16.44 71.1644 16.7247 70.7257 16.902C70.2964 17.07 69.8297 17.154 69.3257 17.154C68.9991 17.154 68.6864 17.1167 68.3877 17.042C68.0984 16.9673 67.8464 16.8507 67.6317 16.692C67.4171 16.5333 67.2444 16.328 67.1137 16.076C66.9924 15.8147 66.9317 15.502 66.9317 15.138C66.9317 14.7273 67.0017 14.3913 67.1417 14.13C67.2817 13.8687 67.4637 13.6587 67.6877 13.5C67.9211 13.332 68.1824 13.206 68.4717 13.122C68.7704 13.038 69.0737 12.968 69.3817 12.912C69.7084 12.8467 70.0164 12.8 70.3057 12.772C70.6044 12.7347 70.8657 12.688 71.0897 12.632C71.3137 12.5667 71.4911 12.478 71.6217 12.366C71.7524 12.2447 71.8177 12.072 71.8177 11.848C71.8177 11.5867 71.7664 11.3767 71.6637 11.218C71.5704 11.0593 71.4444 10.938 71.2857 10.854C71.1364 10.77 70.9637 10.714 70.7677 10.686C70.5811 10.658 70.3944 10.644 70.2077 10.644C69.7037 10.644 69.2837 10.742 68.9477 10.938C68.6117 11.1247 68.4297 11.484 68.4017 12.016H67.2117C67.2304 11.568 67.3237 11.19 67.4917 10.882C67.6597 10.574 67.8837 10.3267 68.1637 10.14C68.4437 9.944 68.7611 9.804 69.1157 9.72C69.4797 9.636 69.8671 9.594 70.2777 9.594C70.6044 9.594 70.9264 9.61733 71.2437 9.664C71.5704 9.71067 71.8644 9.80867 72.1257 9.958C72.3871 10.098 72.5971 10.2987 72.7557 10.56C72.9144 10.8213 72.9937 11.162 72.9937 11.582V15.306C72.9937 15.586 73.0077 15.7913 73.0357 15.922C73.0731 16.0527 73.1851 16.118 73.3717 16.118C73.4744 16.118 73.5957 16.0947 73.7357 16.048V16.972ZM71.8037 13.262C71.6544 13.374 71.4584 13.458 71.2157 13.514C70.9731 13.5607 70.7164 13.6027 70.4457 13.64C70.1844 13.668 69.9184 13.7053 69.6477 13.752C69.3771 13.7893 69.1344 13.8547 68.9197 13.948C68.7051 14.0413 68.5277 14.1767 68.3877 14.354C68.2571 14.522 68.1917 14.7553 68.1917 15.054C68.1917 15.25 68.2291 15.418 68.3037 15.558C68.3877 15.6887 68.4904 15.796 68.6117 15.88C68.7424 15.964 68.8917 16.0247 69.0597 16.062C69.2277 16.0993 69.4051 16.118 69.5917 16.118C69.9837 16.118 70.3197 16.0667 70.5997 15.964C70.8797 15.852 71.1084 15.7167 71.2857 15.558C71.4631 15.39 71.5937 15.2127 71.6777 15.026C71.7617 14.83 71.8037 14.648 71.8037 14.48V13.262ZM76.4953 9.762H77.9373V10.812H76.4953V15.306C76.4953 15.446 76.5046 15.558 76.5233 15.642C76.5513 15.726 76.5979 15.7913 76.6633 15.838C76.7286 15.8847 76.8173 15.9173 76.9293 15.936C77.0506 15.9453 77.2046 15.95 77.3913 15.95H77.9373V17H77.0273C76.7193 17 76.4533 16.9813 76.2293 16.944C76.0146 16.8973 75.8373 16.818 75.6973 16.706C75.5666 16.594 75.4686 16.4353 75.4033 16.23C75.3379 16.0247 75.3053 15.754 75.3053 15.418V10.812H74.0733V9.762H75.3053V7.592H76.4953V9.762ZM80.5193 8.46H79.3293V7.004H80.5193V8.46ZM79.3293 9.762H80.5193V17H79.3293V9.762ZM83.2308 13.388C83.2308 13.8267 83.2868 14.2187 83.3988 14.564C83.5201 14.9 83.6835 15.1847 83.8888 15.418C84.0941 15.642 84.3321 15.8147 84.6028 15.936C84.8828 16.0573 85.1768 16.118 85.4848 16.118C85.7928 16.118 86.0821 16.0573 86.3528 15.936C86.6328 15.8147 86.8755 15.642 87.0808 15.418C87.2861 15.1847 87.4448 14.9 87.5568 14.564C87.6781 14.2187 87.7388 13.8267 87.7388 13.388C87.7388 12.9493 87.6781 12.562 87.5568 12.226C87.4448 11.8807 87.2861 11.5913 87.0808 11.358C86.8755 11.1247 86.6328 10.9473 86.3528 10.826C86.0821 10.7047 85.7928 10.644 85.4848 10.644C85.1768 10.644 84.8828 10.7047 84.6028 10.826C84.3321 10.9473 84.0941 11.1247 83.8888 11.358C83.6835 11.5913 83.5201 11.8807 83.3988 12.226C83.2868 12.562 83.2308 12.9493 83.2308 13.388ZM81.9708 13.388C81.9708 12.856 82.0455 12.3613 82.1948 11.904C82.3441 11.4373 82.5681 11.036 82.8668 10.7C83.1655 10.3547 83.5341 10.084 83.9728 9.888C84.4115 9.692 84.9155 9.594 85.4848 9.594C86.0635 9.594 86.5675 9.692 86.9968 9.888C87.4355 10.084 87.8041 10.3547 88.1028 10.7C88.4015 11.036 88.6255 11.4373 88.7748 11.904C88.9241 12.3613 88.9988 12.856 88.9988 13.388C88.9988 13.92 88.9241 14.4147 88.7748 14.872C88.6255 15.3293 88.4015 15.7307 88.1028 16.076C87.8041 16.412 87.4355 16.678 86.9968 16.874C86.5675 17.0607 86.0635 17.154 85.4848 17.154C84.9155 17.154 84.4115 17.0607 83.9728 16.874C83.5341 16.678 83.1655 16.412 82.8668 16.076C82.5681 15.7307 82.3441 15.3293 82.1948 14.872C82.0455 14.4147 81.9708 13.92 81.9708 13.388ZM90.4019 9.762H91.5219V10.91H91.5499C92.0445 10.0327 92.8285 9.594 93.9019 9.594C94.3779 9.594 94.7745 9.65933 95.0919 9.79C95.4092 9.92067 95.6659 10.1027 95.8619 10.336C96.0579 10.5693 96.1932 10.8493 96.2679 11.176C96.3519 11.4933 96.3939 11.848 96.3939 12.24V17H95.2039V12.1C95.2039 11.652 95.0732 11.2973 94.8119 11.036C94.5505 10.7747 94.1912 10.644 93.7339 10.644C93.3699 10.644 93.0525 10.7 92.7819 10.812C92.5205 10.924 92.3012 11.0827 92.1239 11.288C91.9465 11.4933 91.8112 11.736 91.7179 12.016C91.6339 12.2867 91.5919 12.5853 91.5919 12.912V17H90.4019V9.762ZM98.9092 14.718C98.9185 14.9793 98.9792 15.2033 99.0912 15.39C99.2032 15.5673 99.3478 15.712 99.5252 15.824C99.7118 15.9267 99.9172 16.0013 100.141 16.048C100.374 16.0947 100.612 16.118 100.855 16.118C101.042 16.118 101.238 16.104 101.443 16.076C101.648 16.048 101.835 15.9967 102.003 15.922C102.18 15.8473 102.325 15.74 102.437 15.6C102.549 15.4507 102.605 15.264 102.605 15.04C102.605 14.732 102.488 14.4987 102.255 14.34C102.022 14.1813 101.728 14.0553 101.373 13.962C101.028 13.8593 100.65 13.7707 100.239 13.696C99.8285 13.612 99.4458 13.5 99.0912 13.36C98.7458 13.2107 98.4565 13.0053 98.2232 12.744C97.9898 12.4827 97.8732 12.1187 97.8732 11.652C97.8732 11.288 97.9525 10.9753 98.1112 10.714C98.2792 10.4527 98.4892 10.2427 98.7412 10.084C99.0025 9.916 99.2918 9.79467 99.6092 9.72C99.9358 9.636 100.258 9.594 100.575 9.594C100.986 9.594 101.364 9.63133 101.709 9.706C102.054 9.77133 102.358 9.89267 102.619 10.07C102.89 10.238 103.104 10.4713 103.263 10.77C103.422 11.0593 103.515 11.4233 103.543 11.862H102.353C102.334 11.6287 102.274 11.4373 102.171 11.288C102.068 11.1293 101.938 11.0033 101.779 10.91C101.62 10.8167 101.443 10.7513 101.247 10.714C101.06 10.6673 100.869 10.644 100.673 10.644C100.496 10.644 100.314 10.658 100.127 10.686C99.9498 10.714 99.7865 10.7653 99.6372 10.84C99.4878 10.9053 99.3665 10.9987 99.2732 11.12C99.1798 11.232 99.1332 11.3813 99.1332 11.568C99.1332 11.7733 99.2032 11.946 99.3432 12.086C99.4925 12.2167 99.6792 12.3287 99.9032 12.422C100.127 12.506 100.379 12.5807 100.659 12.646C100.939 12.702 101.219 12.7627 101.499 12.828C101.798 12.8933 102.087 12.9727 102.367 13.066C102.656 13.1593 102.908 13.2853 103.123 13.444C103.347 13.5933 103.524 13.7847 103.655 14.018C103.795 14.2513 103.865 14.5407 103.865 14.886C103.865 15.3247 103.772 15.6887 103.585 15.978C103.408 16.2673 103.17 16.5007 102.871 16.678C102.582 16.8553 102.25 16.9767 101.877 17.042C101.513 17.1167 101.149 17.154 100.785 17.154C100.384 17.154 100.001 17.112 99.6372 17.028C99.2732 16.944 98.9512 16.8087 98.6712 16.622C98.3912 16.426 98.1672 16.174 97.9992 15.866C97.8312 15.5487 97.7378 15.166 97.7192 14.718H98.9092Z" fill="#999999"/>
</svg>
