<svg width="24" height="26" viewBox="0 0 24 26" fill="none" xmlns="http://www.w3.org/2000/svg">
<circle cx="12" cy="14" r="12" fill="#FAFAFA"/>
<g clip-path="url(#clip0_189_7250)">
<path d="M17.3333 6.33333H9.33325C8.59992 6.33333 7.99992 6.93333 7.99992 7.66667V15.6667C7.99992 16.4 8.59992 17 9.33325 17H17.3333C18.0666 17 18.6666 16.4 18.6666 15.6667V7.66667C18.6666 6.93333 18.0666 6.33333 17.3333 6.33333ZM17.3333 15.6667H9.33325V7.66667H17.3333V15.6667ZM6.66659 9H5.33325V18.3333C5.33325 19.0667 5.93325 19.6667 6.66659 19.6667H15.9999V18.3333H6.66659V9ZM14.6666 13V11C14.6666 10.6333 14.3666 10.3333 13.9999 10.3333H12.6666V13.6667H13.9999C14.3666 13.6667 14.6666 13.3667 14.6666 13ZM13.3333 11H13.9999V13H13.3333V11ZM15.9999 12.3333H16.6666V11.6667H15.9999V11H16.6666V10.3333H15.3333V13.6667H15.9999V12.3333ZM10.6666 12.3333H11.3333C11.6999 12.3333 11.9999 12.0333 11.9999 11.6667V11C11.9999 10.6333 11.6999 10.3333 11.3333 10.3333H9.99992V13.6667H10.6666V12.3333ZM10.6666 11H11.3333V11.6667H10.6666V11Z" fill="#999999"/>
</g>
<defs>
<clipPath id="clip0_189_7250">
<rect width="16" height="16" fill="white" transform="translate(4 5)"/>
</clipPath>
</defs>
</svg>
