<svg width="48" height="48" viewBox="0 0 48 48" fill="none" xmlns="http://www.w3.org/2000/svg">
<circle opacity="0.4" cx="24" cy="24" r="24" fill="black"/>
<g clip-path="url(#clip0_144_16862)">
<path fill-rule="evenodd" clip-rule="evenodd" d="M19.575 17.708C19.3687 19.7973 19.2679 21.8956 19.273 23.995C19.273 26.796 19.443 28.992 19.575 30.284C21.4872 29.416 23.3546 28.4524 25.17 27.397C26.9912 26.3527 28.7588 25.2176 30.466 23.996C28.759 22.7733 26.9918 21.6369 25.171 20.591C23.355 19.5372 21.4873 18.575 19.575 17.708ZM17.67 16.76C17.6969 16.5328 17.7763 16.3151 17.9022 16.1241C18.028 15.9331 18.1967 15.7741 18.3948 15.6598C18.5929 15.5455 18.815 15.479 19.0433 15.4657C19.2717 15.4523 19.5 15.4925 19.71 15.583C20.772 16.037 23.152 17.116 26.172 18.859C29.193 20.603 31.318 22.126 32.241 22.817C33.029 23.408 33.031 24.58 32.242 25.173C31.328 25.86 29.229 27.363 26.172 29.129C23.112 30.895 20.76 31.961 19.708 32.409C18.802 32.796 17.788 32.209 17.67 31.232C17.532 30.09 17.274 27.497 17.274 23.995C17.274 20.495 17.531 17.903 17.67 16.76Z" fill="white"/>
</g>
<defs>
<clipPath id="clip0_144_16862">
<rect width="24" height="24" fill="white" transform="translate(12 12)"/>
</clipPath>
</defs>
</svg>
