<svg width="21" height="20" viewBox="0 0 21 20" fill="none" xmlns="http://www.w3.org/2000/svg">
<path d="M3.625 2.5V11.875C3.625 12.9105 4.46447 13.75 5.5 13.75H7.375M3.625 2.5H2.375M3.625 2.5H17.375M17.375 2.5H18.625M17.375 2.5V11.875C17.375 12.9105 16.5355 13.75 15.5 13.75H13.625M7.375 13.75H13.625M7.375 13.75L6.54167 16.25M13.625 13.75L14.4583 16.25M14.4583 16.25L14.875 17.5M14.4583 16.25H6.54167M6.54167 16.25L6.125 17.5M6.75 10L9.25 7.5L11.0397 9.28966C11.8785 8.08584 12.9753 7.07519 14.25 6.33782" stroke="#CCCCCC" stroke-width="1.5" stroke-linecap="round" stroke-linejoin="round"/>
</svg>
