<svg width="48" height="48" viewBox="0 0 48 48" fill="none" xmlns="http://www.w3.org/2000/svg">
<circle cx="24" cy="24" r="24" fill="#F1F9FD"/>
<path d="M24 34C29.5228 34 34 29.5228 34 24C34 18.4772 29.5228 14 24 14C18.4772 14 14 18.4772 14 24C14 29.5228 18.4772 34 24 34Z" stroke="#84D9FF" stroke-width="2" stroke-linecap="round" stroke-linejoin="round"/>
<path d="M21.09 21.0001C21.3251 20.3317 21.7892 19.7682 22.4 19.4092C23.0108 19.0502 23.7289 18.919 24.4272 19.0388C25.1255 19.1586 25.7588 19.5216 26.2151 20.0636C26.6714 20.6056 26.9211 21.2916 26.92 22.0001C26.92 24.0001 23.92 25.0001 23.92 25.0001" stroke="#84D9FF" stroke-width="2" stroke-linecap="round" stroke-linejoin="round"/>
<path d="M24 29H24.01" stroke="#84D9FF" stroke-width="2" stroke-linecap="round" stroke-linejoin="round"/>
</svg>
