<svg width="24" height="18" viewBox="0 0 16 16" fill="none" xmlns="http://www.w3.org/2000/svg">
<path d="M12.9533 1.14453H12.852C12.3769 1.14453 11.9369 1.41188 11.6748 1.85938C11.5792 2.02281 11.3266 2.04234 11.2067 1.89734C10.808 1.41188 10.2784 1.14453 9.71234 1.14453C9.15016 1.14453 8.62078 1.41188 8.22156 1.89734C8.1125 2.03016 7.88953 2.03047 7.77984 1.89703C7.38062 1.41188 6.85125 1.14453 6.28906 1.14453C5.72687 1.14453 5.1975 1.41188 4.79828 1.89734C4.67859 2.04359 4.42609 2.02313 4.33031 1.85938C4.06781 1.41188 3.62781 1.14453 3.15281 1.14453H3.03984C2.30719 1.14453 1.71094 1.74078 1.71094 2.47344V13.5298C1.71094 14.2625 2.30719 14.8588 3.03984 14.8588H3.15281C3.62766 14.8588 4.06766 14.5914 4.33062 14.1433C4.42547 13.98 4.67797 13.9591 4.79828 14.1061C5.1975 14.5913 5.72687 14.8586 6.28906 14.8586C6.85125 14.8586 7.38062 14.5913 7.77984 14.1058C7.88953 13.9727 8.1125 13.973 8.22156 14.1061C8.62078 14.5913 9.15016 14.8586 9.71625 14.8586C10.2784 14.8586 10.8081 14.5913 11.2066 14.1064C11.3273 13.9602 11.5798 13.9814 11.6747 14.1433C11.937 14.5914 12.377 14.8588 12.8522 14.8588H12.9534C13.6861 14.8588 14.2823 14.2625 14.2823 13.5298V2.47359C14.2823 1.74078 13.6859 1.14453 12.9533 1.14453ZM13.1394 13.5298C13.1394 13.6325 13.0559 13.7159 12.9533 13.7159H12.852C12.7561 13.7159 12.6816 13.6013 12.6609 13.5658C12.4053 13.1297 11.9327 12.8588 11.4277 12.8588C10.9991 12.8588 10.597 13.0488 10.3239 13.3805C10.2209 13.5058 10.005 13.7158 9.71234 13.7158C9.42359 13.7158 9.20734 13.5055 9.10437 13.3805C8.56 12.7172 7.44203 12.717 6.89703 13.3802C6.79406 13.5055 6.57781 13.7158 6.28906 13.7158C6.00031 13.7158 5.78406 13.5055 5.68109 13.3805C5.40875 13.0488 5.00641 12.8588 4.57766 12.8588C4.07203 12.8588 3.59937 13.13 3.34437 13.5658C3.32375 13.6009 3.24891 13.7159 3.15297 13.7159H3.04C2.93734 13.7159 2.85391 13.6325 2.85391 13.5298V2.47359C2.85391 2.37094 2.93734 2.2875 3.04 2.2875H3.15297C3.24891 2.2875 3.32375 2.4025 3.34406 2.43703C3.59938 2.87344 4.07203 3.14469 4.57766 3.14469C5.00656 3.14469 5.40891 2.95469 5.68109 2.62313C5.78406 2.49781 6.00031 2.2875 6.28906 2.2875C6.57781 2.2875 6.79406 2.49781 6.89703 2.62281C7.44203 3.28656 8.56 3.28578 9.10437 2.62313C9.20734 2.49781 9.42359 2.2875 9.71625 2.2875C10.005 2.2875 10.2209 2.49766 10.3242 2.62344C10.597 2.95469 10.9992 3.14469 11.4277 3.14469C11.9327 3.14469 12.4053 2.87375 12.6613 2.43703C12.6816 2.40219 12.7561 2.2875 12.852 2.2875H12.9533C13.0559 2.2875 13.1394 2.37094 13.1394 2.47359V13.5298Z" fill="#284E63"/>
<path d="M4.00016 8.57141H9.71438V9.71422H4.00016V8.57141ZM4 10.8569H11.9972V11.9997H4V10.8569ZM9.71281 5.14281H10.6191L9.30891 6.45312L10.1169 7.26109L11.4272 5.95094V6.85719H12.57V4H9.71281V5.14281Z" fill="#284E63"/>
</svg>
