<svg width="32" height="32" viewBox="0 0 32 32" fill="none" xmlns="http://www.w3.org/2000/svg">
<rect width="32" height="32" rx="16" fill="#FAFAFA"/>
<path d="M13.4487 11.3431C13.9205 11.1476 14.4263 11.047 14.9371 11.047C15.9686 11.047 16.9579 11.4568 17.6873 12.1862C18.4167 12.9156 18.8265 13.9049 18.8265 14.9364C18.8265 15.968 18.4167 16.9573 17.6873 17.6867C16.9579 18.4161 15.9686 18.8259 14.9371 18.8259C14.4263 18.8259 13.9205 18.7253 13.4487 18.5298C12.9768 18.3343 12.548 18.0478 12.1868 17.6867C11.8257 17.3255 11.5392 16.8967 11.3437 16.4248C11.1483 15.953 11.0477 15.4472 11.0477 14.9364C11.0477 14.4257 11.1483 13.9199 11.3437 13.448C11.5392 12.9761 11.8257 12.5474 12.1868 12.1862C12.548 11.825 12.9768 11.5385 13.4487 11.3431ZM10.4239 12.5898C10.047 13.3145 9.85011 14.1195 9.85 14.9364C9.84989 15.9032 10.1253 16.8501 10.644 17.666C11.1626 18.4819 11.9031 19.1332 12.7786 19.5434C13.654 19.9536 14.6283 20.1059 15.5872 19.9823C16.5007 19.8646 17.3643 19.5012 18.0863 18.9321L20.7956 21.6415C20.8501 21.6993 20.9155 21.7458 20.9881 21.7782C21.0616 21.8109 21.1409 21.8285 21.2213 21.8299C21.3017 21.8313 21.3815 21.8165 21.4561 21.7864C21.5307 21.7563 21.5984 21.7115 21.6553 21.6546C21.7121 21.5977 21.757 21.53 21.7871 21.4554C21.8172 21.3809 21.832 21.301 21.8306 21.2206C21.8291 21.1402 21.8115 21.0609 21.7788 20.9875C21.7465 20.9149 21.7 20.8494 21.6421 20.795L18.9327 18.0856C19.4093 17.4808 19.7428 16.7751 19.9072 16.0217C20.0814 15.2235 20.0608 14.3951 19.8471 13.6066C19.6334 12.8181 19.233 12.0926 18.6797 11.4916C18.1263 10.8905 17.4364 10.4316 16.6682 10.1536C15.9 9.8756 15.0761 9.7867 14.2663 9.89442C13.4565 10.0021 12.6845 10.3033 12.0157 10.7725C11.3469 11.2416 10.8009 11.865 10.4239 12.5898Z" fill="url(#paint0_linear_178_7344)" stroke="url(#paint1_linear_178_7344)" stroke-width="0.3"/>
<defs>
<linearGradient id="paint0_linear_178_7344" x1="10" y1="15.84" x2="21.6807" y2="15.84" gradientUnits="userSpaceOnUse">
<stop stop-color="#9068C1"/>
<stop offset="1" stop-color="#1BA1E3"/>
</linearGradient>
<linearGradient id="paint1_linear_178_7344" x1="10" y1="15.84" x2="21.6807" y2="15.84" gradientUnits="userSpaceOnUse">
<stop stop-color="#9068C1"/>
<stop offset="1" stop-color="#1BA1E3"/>
</linearGradient>
</defs>
</svg>
