<svg width="101" height="32" viewBox="0 0 101 32" fill="none" xmlns="http://www.w3.org/2000/svg">
<rect width="101" height="32" rx="8" fill="url(#paint0_linear_180_7364)"/>
<path d="M21.892 13.94C21.828 13.324 21.604 12.88 21.22 12.608C20.844 12.328 20.36 12.188 19.768 12.188C19.528 12.188 19.292 12.212 19.06 12.26C18.828 12.308 18.62 12.388 18.436 12.5C18.26 12.612 18.116 12.764 18.004 12.956C17.9 13.14 17.848 13.372 17.848 13.652C17.848 13.916 17.924 14.132 18.076 14.3C18.236 14.46 18.444 14.592 18.7 14.696C18.964 14.8 19.26 14.888 19.588 14.96C19.916 15.024 20.248 15.096 20.584 15.176C20.928 15.256 21.264 15.352 21.592 15.464C21.92 15.568 22.212 15.712 22.468 15.896C22.732 16.08 22.94 16.312 23.092 16.592C23.252 16.872 23.332 17.224 23.332 17.648C23.332 18.104 23.228 18.496 23.02 18.824C22.82 19.144 22.56 19.408 22.24 19.616C21.92 19.816 21.56 19.96 21.16 20.048C20.768 20.144 20.376 20.192 19.984 20.192C19.504 20.192 19.048 20.132 18.616 20.012C18.192 19.892 17.816 19.712 17.488 19.472C17.168 19.224 16.912 18.912 16.72 18.536C16.536 18.152 16.444 17.7 16.444 17.18H17.524C17.524 17.54 17.592 17.852 17.728 18.116C17.872 18.372 18.056 18.584 18.28 18.752C18.512 18.92 18.78 19.044 19.084 19.124C19.388 19.204 19.7 19.244 20.02 19.244C20.276 19.244 20.532 19.22 20.788 19.172C21.052 19.124 21.288 19.044 21.496 18.932C21.704 18.812 21.872 18.652 22 18.452C22.128 18.252 22.192 17.996 22.192 17.684C22.192 17.388 22.112 17.148 21.952 16.964C21.8 16.78 21.592 16.632 21.328 16.52C21.072 16.4 20.78 16.304 20.452 16.232C20.124 16.16 19.788 16.088 19.444 16.016C19.108 15.936 18.776 15.848 18.448 15.752C18.12 15.648 17.824 15.516 17.56 15.356C17.304 15.188 17.096 14.976 16.936 14.72C16.784 14.456 16.708 14.128 16.708 13.736C16.708 13.304 16.796 12.932 16.972 12.62C17.148 12.3 17.38 12.04 17.668 11.84C17.964 11.632 18.296 11.48 18.664 11.384C19.04 11.28 19.424 11.228 19.816 11.228C20.256 11.228 20.664 11.28 21.04 11.384C21.416 11.488 21.744 11.652 22.024 11.876C22.312 12.1 22.536 12.384 22.696 12.728C22.864 13.064 22.956 13.468 22.972 13.94H21.892ZM25.9653 13.796H27.2013V14.696H25.9653V18.548C25.9653 18.668 25.9733 18.764 25.9893 18.836C26.0133 18.908 26.0533 18.964 26.1093 19.004C26.1653 19.044 26.2413 19.072 26.3373 19.088C26.4413 19.096 26.5733 19.1 26.7333 19.1H27.2013V20H26.4213C26.1573 20 25.9293 19.984 25.7373 19.952C25.5533 19.912 25.4013 19.844 25.2812 19.748C25.1693 19.652 25.0853 19.516 25.0293 19.34C24.9733 19.164 24.9453 18.932 24.9453 18.644V14.696H23.8893V13.796H24.9453V11.936H25.9653V13.796ZM33.8304 19.976C33.6544 20.08 33.4104 20.132 33.0984 20.132C32.8344 20.132 32.6224 20.06 32.4624 19.916C32.3104 19.764 32.2344 19.52 32.2344 19.184C31.9544 19.52 31.6264 19.764 31.2504 19.916C30.8824 20.06 30.4824 20.132 30.0504 20.132C29.7704 20.132 29.5024 20.1 29.2464 20.036C28.9984 19.972 28.7824 19.872 28.5984 19.736C28.4144 19.6 28.2664 19.424 28.1544 19.208C28.0504 18.984 27.9984 18.716 27.9984 18.404C27.9984 18.052 28.0584 17.764 28.1784 17.54C28.2984 17.316 28.4544 17.136 28.6464 17C28.8464 16.856 29.0704 16.748 29.3184 16.676C29.5744 16.604 29.8344 16.544 30.0984 16.496C30.3784 16.44 30.6424 16.4 30.8904 16.376C31.1464 16.344 31.3704 16.304 31.5624 16.256C31.7544 16.2 31.9064 16.124 32.0184 16.028C32.1304 15.924 32.1864 15.776 32.1864 15.584C32.1864 15.36 32.1424 15.18 32.0544 15.044C31.9744 14.908 31.8664 14.804 31.7304 14.732C31.6024 14.66 31.4544 14.612 31.2864 14.588C31.1264 14.564 30.9664 14.552 30.8064 14.552C30.3744 14.552 30.0144 14.636 29.7264 14.804C29.4384 14.964 29.2824 15.272 29.2584 15.728H28.2384C28.2544 15.344 28.3344 15.02 28.4784 14.756C28.6224 14.492 28.8144 14.28 29.0544 14.12C29.2944 13.952 29.5664 13.832 29.8704 13.76C30.1824 13.688 30.5144 13.652 30.8664 13.652C31.1464 13.652 31.4224 13.672 31.6944 13.712C31.9744 13.752 32.2264 13.836 32.4504 13.964C32.6744 14.084 32.8544 14.256 32.9904 14.48C33.1264 14.704 33.1944 14.996 33.1944 15.356V18.548C33.1944 18.788 33.2064 18.964 33.2304 19.076C33.2624 19.188 33.3584 19.244 33.5184 19.244C33.6064 19.244 33.7104 19.224 33.8304 19.184V19.976ZM32.1744 16.796C32.0464 16.892 31.8784 16.964 31.6704 17.012C31.4624 17.052 31.2424 17.088 31.0104 17.12C30.7864 17.144 30.5584 17.176 30.3264 17.216C30.0944 17.248 29.8864 17.304 29.7024 17.384C29.5184 17.464 29.3664 17.58 29.2464 17.732C29.1344 17.876 29.0784 18.076 29.0784 18.332C29.0784 18.5 29.1104 18.644 29.1744 18.764C29.2464 18.876 29.3344 18.968 29.4384 19.04C29.5504 19.112 29.6784 19.164 29.8224 19.196C29.9664 19.228 30.1184 19.244 30.2784 19.244C30.6144 19.244 30.9024 19.2 31.1424 19.112C31.3824 19.016 31.5784 18.9 31.7304 18.764C31.8824 18.62 31.9944 18.468 32.0664 18.308C32.1384 18.14 32.1744 17.984 32.1744 17.84V16.796ZM34.7437 13.796H35.7037V15.104H35.7277C35.9757 14.6 36.2797 14.228 36.6397 13.988C36.9997 13.748 37.4557 13.636 38.0077 13.652V14.732C37.5997 14.732 37.2517 14.788 36.9637 14.9C36.6757 15.012 36.4437 15.176 36.2677 15.392C36.0917 15.608 35.9637 15.872 35.8837 16.184C35.8037 16.488 35.7637 16.84 35.7637 17.24V20H34.7437V13.796ZM40.1918 13.796H41.4278V14.696H40.1918V18.548C40.1918 18.668 40.1998 18.764 40.2158 18.836C40.2398 18.908 40.2798 18.964 40.3358 19.004C40.3918 19.044 40.4678 19.072 40.5638 19.088C40.6678 19.096 40.7998 19.1 40.9598 19.1H41.4278V20H40.6478C40.3838 20 40.1558 19.984 39.9638 19.952C39.7798 19.912 39.6278 19.844 39.5078 19.748C39.3958 19.652 39.3118 19.516 39.2558 19.34C39.1998 19.164 39.1718 18.932 39.1718 18.644V14.696H38.1158V13.796H39.1718V11.936H40.1918V13.796ZM47.2088 15.536H49.4408C50.0888 15.544 50.5608 15.412 50.8568 15.14C51.1608 14.868 51.3128 14.476 51.3128 13.964C51.3128 13.452 51.1608 13.064 50.8568 12.8C50.5608 12.528 50.0888 12.392 49.4408 12.392H47.2088V15.536ZM46.0688 11.432H49.8248C50.6888 11.432 51.3408 11.656 51.7808 12.104C52.2288 12.544 52.4528 13.164 52.4528 13.964C52.4528 14.764 52.2288 15.388 51.7808 15.836C51.3408 16.284 50.6888 16.504 49.8248 16.496H47.2088V20H46.0688V11.432ZM53.7421 11.432H54.7621V20H53.7421V11.432ZM61.8382 19.976C61.6622 20.08 61.4182 20.132 61.1062 20.132C60.8422 20.132 60.6302 20.06 60.4702 19.916C60.3182 19.764 60.2422 19.52 60.2422 19.184C59.9622 19.52 59.6342 19.764 59.2582 19.916C58.8902 20.06 58.4902 20.132 58.0582 20.132C57.7782 20.132 57.5102 20.1 57.2542 20.036C57.0062 19.972 56.7902 19.872 56.6062 19.736C56.4222 19.6 56.2742 19.424 56.1622 19.208C56.0582 18.984 56.0062 18.716 56.0062 18.404C56.0062 18.052 56.0662 17.764 56.1862 17.54C56.3062 17.316 56.4622 17.136 56.6542 17C56.8542 16.856 57.0782 16.748 57.3262 16.676C57.5822 16.604 57.8422 16.544 58.1062 16.496C58.3862 16.44 58.6502 16.4 58.8982 16.376C59.1542 16.344 59.3782 16.304 59.5702 16.256C59.7622 16.2 59.9142 16.124 60.0262 16.028C60.1382 15.924 60.1942 15.776 60.1942 15.584C60.1942 15.36 60.1502 15.18 60.0622 15.044C59.9822 14.908 59.8742 14.804 59.7382 14.732C59.6102 14.66 59.4622 14.612 59.2942 14.588C59.1342 14.564 58.9742 14.552 58.8142 14.552C58.3822 14.552 58.0222 14.636 57.7342 14.804C57.4462 14.964 57.2902 15.272 57.2662 15.728H56.2462C56.2622 15.344 56.3422 15.02 56.4862 14.756C56.6302 14.492 56.8222 14.28 57.0622 14.12C57.3022 13.952 57.5742 13.832 57.8782 13.76C58.1902 13.688 58.5222 13.652 58.8742 13.652C59.1542 13.652 59.4302 13.672 59.7022 13.712C59.9822 13.752 60.2342 13.836 60.4582 13.964C60.6822 14.084 60.8622 14.256 60.9982 14.48C61.1342 14.704 61.2022 14.996 61.2022 15.356V18.548C61.2022 18.788 61.2142 18.964 61.2382 19.076C61.2702 19.188 61.3662 19.244 61.5262 19.244C61.6142 19.244 61.7182 19.224 61.8382 19.184V19.976ZM60.1822 16.796C60.0542 16.892 59.8862 16.964 59.6782 17.012C59.4702 17.052 59.2502 17.088 59.0182 17.12C58.7942 17.144 58.5662 17.176 58.3342 17.216C58.1022 17.248 57.8942 17.304 57.7102 17.384C57.5262 17.464 57.3742 17.58 57.2542 17.732C57.1422 17.876 57.0862 18.076 57.0862 18.332C57.0862 18.5 57.1182 18.644 57.1822 18.764C57.2542 18.876 57.3422 18.968 57.4462 19.04C57.5582 19.112 57.6862 19.164 57.8302 19.196C57.9742 19.228 58.1262 19.244 58.2862 19.244C58.6222 19.244 58.9102 19.2 59.1502 19.112C59.3902 19.016 59.5862 18.9 59.7382 18.764C59.8902 18.62 60.0022 18.468 60.0742 18.308C60.1462 18.14 60.1822 17.984 60.1822 17.84V16.796ZM65.2235 20.828C65.1035 21.132 64.9835 21.388 64.8635 21.596C64.7515 21.804 64.6235 21.972 64.4795 22.1C64.3435 22.236 64.1875 22.332 64.0115 22.388C63.8435 22.452 63.6475 22.484 63.4235 22.484C63.3035 22.484 63.1835 22.476 63.0635 22.46C62.9435 22.444 62.8275 22.416 62.7155 22.376V21.44C62.8035 21.48 62.9035 21.512 63.0155 21.536C63.1355 21.568 63.2355 21.584 63.3155 21.584C63.5235 21.584 63.6955 21.532 63.8315 21.428C63.9755 21.332 64.0835 21.192 64.1555 21.008L64.5755 19.964L62.1155 13.796H63.2675L65.0795 18.872H65.1035L66.8435 13.796H67.9235L65.2235 20.828ZM69.8675 12.68H68.8475V11.432H69.8675V12.68ZM68.8475 13.796H69.8675V20H68.8475V13.796ZM71.4477 13.796H72.4077V14.78H72.4317C72.8557 14.028 73.5277 13.652 74.4477 13.652C74.8557 13.652 75.1957 13.708 75.4677 13.82C75.7397 13.932 75.9597 14.088 76.1277 14.288C76.2957 14.488 76.4117 14.728 76.4757 15.008C76.5477 15.28 76.5837 15.584 76.5837 15.92V20H75.5637V15.8C75.5637 15.416 75.4517 15.112 75.2277 14.888C75.0037 14.664 74.6957 14.552 74.3037 14.552C73.9917 14.552 73.7197 14.6 73.4877 14.696C73.2637 14.792 73.0757 14.928 72.9237 15.104C72.7717 15.28 72.6557 15.488 72.5757 15.728C72.5037 15.96 72.4677 16.216 72.4677 16.496V20H71.4477V13.796ZM83.4677 19.472C83.4677 20.488 83.2357 21.248 82.7717 21.752C82.3077 22.256 81.5797 22.508 80.5877 22.508C80.2997 22.508 80.0037 22.476 79.6997 22.412C79.4037 22.348 79.1317 22.244 78.8837 22.1C78.6437 21.956 78.4437 21.768 78.2837 21.536C78.1237 21.304 78.0357 21.02 78.0197 20.684H79.0397C79.0477 20.868 79.1037 21.024 79.2077 21.152C79.3197 21.28 79.4517 21.384 79.6037 21.464C79.7637 21.544 79.9357 21.6 80.1197 21.632C80.3037 21.672 80.4797 21.692 80.6477 21.692C80.9837 21.692 81.2677 21.632 81.4997 21.512C81.7317 21.4 81.9237 21.24 82.0757 21.032C82.2277 20.832 82.3357 20.588 82.3997 20.3C82.4717 20.012 82.5077 19.696 82.5077 19.352V18.944H82.4837C82.3077 19.328 82.0397 19.612 81.6797 19.796C81.3277 19.972 80.9517 20.06 80.5517 20.06C80.0877 20.06 79.6837 19.976 79.3397 19.808C78.9957 19.64 78.7077 19.416 78.4757 19.136C78.2437 18.848 78.0677 18.516 77.9477 18.14C77.8357 17.756 77.7797 17.352 77.7797 16.928C77.7797 16.56 77.8277 16.184 77.9237 15.8C78.0197 15.408 78.1797 15.056 78.4037 14.744C78.6277 14.424 78.9237 14.164 79.2917 13.964C79.6597 13.756 80.1117 13.652 80.6477 13.652C81.0397 13.652 81.3997 13.74 81.7277 13.916C82.0557 14.084 82.3117 14.34 82.4957 14.684H82.5077V13.796H83.4677V19.472ZM80.6117 19.172C80.9477 19.172 81.2317 19.104 81.4637 18.968C81.7037 18.824 81.8957 18.64 82.0397 18.416C82.1837 18.184 82.2877 17.924 82.3517 17.636C82.4237 17.348 82.4597 17.06 82.4597 16.772C82.4597 16.5 82.4277 16.232 82.3637 15.968C82.2997 15.704 82.1957 15.468 82.0517 15.26C81.9157 15.044 81.7357 14.872 81.5117 14.744C81.2877 14.616 81.0157 14.552 80.6957 14.552C80.3677 14.552 80.0877 14.616 79.8557 14.744C79.6237 14.864 79.4317 15.028 79.2797 15.236C79.1357 15.444 79.0277 15.684 78.9557 15.956C78.8917 16.228 78.8597 16.512 78.8597 16.808C78.8597 17.088 78.8877 17.368 78.9437 17.648C78.9997 17.928 79.0957 18.184 79.2317 18.416C79.3677 18.64 79.5477 18.824 79.7717 18.968C79.9957 19.104 80.2757 19.172 80.6117 19.172Z" fill="#FAFAFA"/>
<defs>
<linearGradient id="paint0_linear_180_7364" x1="0" y1="16" x2="101" y2="16" gradientUnits="userSpaceOnUse">
<stop stop-color="#9068C1"/>
<stop offset="1" stop-color="#1BA1E3"/>
</linearGradient>
</defs>
</svg>
