<?xml version="1.0" encoding="UTF-8"?>
<svg xmlns="http://www.w3.org/2000/svg" xmlns:xlink="http://www.w3.org/1999/xlink" width="24px" height="24px" viewBox="0 0 24 24" version="1.1">
<g id="surface1">
<path style=" stroke:none;fill-rule:nonzero;fill:rgb(0%,0%,0%);fill-opacity:1;" d="M 5.441406 2.304688 C 5.304688 2.328125 5.007812 2.445312 4.78125 2.558594 C 4.046875 2.929688 3.5625 3.53125 3.34375 4.335938 L 3.242188 4.710938 L 3.242188 19.289062 L 3.34375 19.664062 C 3.5625 20.476562 4.050781 21.074219 4.78125 21.4375 C 5 21.542969 5.210938 21.636719 5.25 21.648438 C 5.28125 21.65625 5.417969 21.679688 5.546875 21.707031 C 5.804688 21.753906 15.96875 21.769531 16.214844 21.722656 C 16.292969 21.703125 16.421875 21.632812 16.492188 21.5625 C 16.566406 21.492188 16.710938 21.40625 16.808594 21.375 C 16.914062 21.34375 17.511719 21.054688 18.144531 20.738281 C 19.195312 20.210938 19.335938 20.128906 19.660156 19.824219 C 20.070312 19.433594 20.375 18.976562 20.5625 18.445312 L 20.695312 18.070312 L 20.695312 15.1875 C 20.695312 12.308594 20.695312 12.304688 20.59375 12.078125 C 20.464844 11.8125 20.109375 11.421875 19.851562 11.273438 C 19.75 11.210938 19.476562 11.113281 19.242188 11.058594 C 19.011719 11 18.804688 10.941406 18.789062 10.925781 C 18.769531 10.90625 18.75 9.472656 18.746094 7.734375 L 18.742188 4.570312 L 18.605469 4.148438 C 18.53125 3.917969 18.4375 3.695312 18.398438 3.65625 C 18.359375 3.613281 18.328125 3.558594 18.328125 3.535156 C 18.328125 3.511719 18.210938 3.359375 18.070312 3.207031 C 17.71875 2.808594 17.269531 2.515625 16.785156 2.371094 L 16.386719 2.25 L 11.042969 2.253906 C 7.757812 2.257812 5.597656 2.277344 5.441406 2.304688 Z M 16.425781 3.828125 C 16.730469 3.933594 17.070312 4.273438 17.175781 4.585938 C 17.242188 4.796875 17.25 5.152344 17.25 7.683594 C 17.25 9.257812 17.234375 10.546875 17.222656 10.546875 C 17.207031 10.546875 17.023438 10.5 16.8125 10.449219 C 16.09375 10.257812 15.816406 10.289062 13.976562 10.75 C 13.097656 10.972656 12.296875 11.195312 12.195312 11.246094 C 11.867188 11.414062 11.632812 11.664062 11.453125 12.039062 L 11.273438 12.394531 L 11.273438 15.136719 C 11.273438 17.863281 11.273438 17.886719 11.382812 18.257812 C 11.59375 18.976562 12.007812 19.609375 12.554688 20.019531 L 12.859375 20.25 L 5.726562 20.25 L 5.457031 20.109375 C 5.101562 19.925781 4.941406 19.730469 4.808594 19.339844 C 4.773438 19.226562 4.773438 4.773438 4.808594 4.660156 C 4.941406 4.269531 5.101562 4.074219 5.457031 3.890625 L 5.726562 3.75 L 10.964844 3.75 C 15.65625 3.753906 16.21875 3.757812 16.425781 3.828125 Z M 17.664062 12.167969 C 18.453125 12.367188 19.140625 12.5625 19.1875 12.601562 C 19.261719 12.664062 19.265625 12.84375 19.265625 15.136719 C 19.265625 16.59375 19.242188 17.6875 19.21875 17.804688 C 19.144531 18.117188 18.992188 18.402344 18.757812 18.660156 C 18.578125 18.867188 18.40625 18.964844 17.417969 19.457031 L 16.289062 20.023438 L 15.953125 20.007812 C 15.628906 19.992188 15.566406 19.96875 14.597656 19.480469 C 13.429688 18.898438 13.175781 18.707031 12.921875 18.191406 L 12.773438 17.882812 L 12.757812 15.277344 C 12.75 12.890625 12.753906 12.664062 12.824219 12.605469 C 12.9375 12.507812 15.683594 11.820312 15.976562 11.816406 C 16.132812 11.8125 16.710938 11.933594 17.664062 12.167969 Z M 17.664062 12.167969 "/>
<path style=" stroke:none;fill-rule:nonzero;fill:rgb(0%,0%,0%);fill-opacity:1;" d="M 6.769531 6.300781 C 6.519531 6.378906 6.375 6.523438 6.300781 6.789062 C 6.210938 7.082031 6.261719 7.292969 6.484375 7.53125 C 6.710938 7.785156 6.671875 7.785156 11.113281 7.773438 C 15.101562 7.757812 15.214844 7.753906 15.351562 7.664062 C 15.695312 7.4375 15.816406 7.121094 15.703125 6.765625 C 15.640625 6.585938 15.429688 6.351562 15.257812 6.28125 C 15.207031 6.257812 13.316406 6.242188 11.0625 6.238281 C 7.835938 6.238281 6.917969 6.253906 6.769531 6.300781 Z M 6.769531 6.300781 "/>
<path style=" stroke:none;fill-rule:nonzero;fill:rgb(0%,0%,0%);fill-opacity:1;" d="M 6.769531 9.300781 C 6.519531 9.378906 6.375 9.523438 6.300781 9.789062 C 6.210938 10.082031 6.28125 10.359375 6.5 10.554688 C 6.734375 10.765625 6.886719 10.78125 9 10.78125 C 10.679688 10.78125 11.039062 10.773438 11.207031 10.710938 C 11.621094 10.566406 11.820312 10.21875 11.714844 9.835938 C 11.644531 9.570312 11.429688 9.347656 11.183594 9.285156 C 10.871094 9.207031 7.027344 9.21875 6.769531 9.300781 Z M 6.769531 9.300781 "/>
<path style=" stroke:none;fill-rule:nonzero;fill:rgb(0%,0%,0%);fill-opacity:1;" d="M 6.769531 12.300781 C 6.519531 12.378906 6.375 12.523438 6.300781 12.789062 C 6.210938 13.082031 6.261719 13.292969 6.484375 13.53125 C 6.679688 13.753906 6.9375 13.789062 8.125 13.773438 C 9.113281 13.757812 9.226562 13.75 9.351562 13.664062 C 9.695312 13.4375 9.816406 13.121094 9.703125 12.765625 C 9.640625 12.582031 9.425781 12.347656 9.257812 12.28125 C 9.089844 12.214844 6.984375 12.230469 6.769531 12.300781 Z M 6.769531 12.300781 "/>
</g>
</svg>
