<svg width="328" height="48" viewBox="0 0 328 48" fill="none" xmlns="http://www.w3.org/2000/svg">
<rect x="0.5" y="0.5" width="327" height="47" rx="7.5" fill="white" stroke="#2F6CE5" stroke-dasharray="10 4"/>
<g clip-path="url(#clip0_1418_23561)">
<path d="M102 26.5002V29.0002H91.9999V26.5002H90.3333V29.0002C90.3333 29.9168 91.0833 30.6668 91.9999 30.6668H102C102.917 30.6668 103.667 29.9168 103.667 29.0002V26.5002H102ZM92.8333 21.5002L94.0083 22.6752L96.1666 20.5252V27.3335H97.8333V20.5252L99.9916 22.6752L101.167 21.5002L96.9999 17.3335L92.8333 21.5002Z" fill="#2F6CE5"/>
</g>
<path d="M124.072 25.388C124.072 26.6667 123.731 27.628 123.05 28.272C122.369 28.9067 121.398 29.224 120.138 29.224C118.85 29.224 117.842 28.9207 117.114 28.314C116.395 27.698 116.036 26.7227 116.036 25.388V19.004H117.366V25.388C117.366 26.284 117.604 26.9653 118.08 27.432C118.556 27.8893 119.242 28.118 120.138 28.118C120.987 28.118 121.631 27.8893 122.07 27.432C122.518 26.9653 122.742 26.284 122.742 25.388V19.004H124.072V25.388ZM126.042 21.762H127.232V22.742H127.26C127.456 22.3407 127.764 22.0513 128.184 21.874C128.604 21.6873 129.066 21.594 129.57 21.594C130.13 21.594 130.615 21.6967 131.026 21.902C131.446 22.1073 131.791 22.3873 132.062 22.742C132.342 23.0873 132.552 23.4887 132.692 23.946C132.832 24.4033 132.902 24.8887 132.902 25.402C132.902 25.9153 132.832 26.4007 132.692 26.858C132.561 27.3153 132.356 27.7167 132.076 28.062C131.805 28.398 131.46 28.664 131.04 28.86C130.629 29.056 130.148 29.154 129.598 29.154C129.42 29.154 129.22 29.1353 128.996 29.098C128.781 29.0607 128.566 29 128.352 28.916C128.137 28.832 127.932 28.72 127.736 28.58C127.549 28.4307 127.39 28.2487 127.26 28.034H127.232V31.758H126.042V21.762ZM131.642 25.318C131.642 24.982 131.595 24.6553 131.502 24.338C131.418 24.0113 131.282 23.722 131.096 23.47C130.918 23.218 130.685 23.0173 130.396 22.868C130.116 22.7187 129.784 22.644 129.402 22.644C129 22.644 128.66 22.7233 128.38 22.882C128.1 23.0407 127.871 23.2507 127.694 23.512C127.516 23.764 127.386 24.0533 127.302 24.38C127.227 24.7067 127.19 25.038 127.19 25.374C127.19 25.7287 127.232 26.074 127.316 26.41C127.4 26.7367 127.53 27.026 127.708 27.278C127.894 27.53 128.132 27.7353 128.422 27.894C128.711 28.0433 129.061 28.118 129.472 28.118C129.882 28.118 130.223 28.0387 130.494 27.88C130.774 27.7213 130.998 27.5113 131.166 27.25C131.334 26.9887 131.455 26.69 131.53 26.354C131.604 26.018 131.642 25.6727 131.642 25.318ZM134.368 19.004H135.558V29H134.368V19.004ZM138.27 25.388C138.27 25.8267 138.326 26.2187 138.438 26.564C138.559 26.9 138.723 27.1847 138.928 27.418C139.133 27.642 139.371 27.8147 139.642 27.936C139.922 28.0573 140.216 28.118 140.524 28.118C140.832 28.118 141.121 28.0573 141.392 27.936C141.672 27.8147 141.915 27.642 142.12 27.418C142.325 27.1847 142.484 26.9 142.596 26.564C142.717 26.2187 142.778 25.8267 142.778 25.388C142.778 24.9493 142.717 24.562 142.596 24.226C142.484 23.8807 142.325 23.5913 142.12 23.358C141.915 23.1247 141.672 22.9473 141.392 22.826C141.121 22.7047 140.832 22.644 140.524 22.644C140.216 22.644 139.922 22.7047 139.642 22.826C139.371 22.9473 139.133 23.1247 138.928 23.358C138.723 23.5913 138.559 23.8807 138.438 24.226C138.326 24.562 138.27 24.9493 138.27 25.388ZM137.01 25.388C137.01 24.856 137.085 24.3613 137.234 23.904C137.383 23.4373 137.607 23.036 137.906 22.7C138.205 22.3547 138.573 22.084 139.012 21.888C139.451 21.692 139.955 21.594 140.524 21.594C141.103 21.594 141.607 21.692 142.036 21.888C142.475 22.084 142.843 22.3547 143.142 22.7C143.441 23.036 143.665 23.4373 143.814 23.904C143.963 24.3613 144.038 24.856 144.038 25.388C144.038 25.92 143.963 26.4147 143.814 26.872C143.665 27.3293 143.441 27.7307 143.142 28.076C142.843 28.412 142.475 28.678 142.036 28.874C141.607 29.0607 141.103 29.154 140.524 29.154C139.955 29.154 139.451 29.0607 139.012 28.874C138.573 28.678 138.205 28.412 137.906 28.076C137.607 27.7307 137.383 27.3293 137.234 26.872C137.085 26.4147 137.01 25.92 137.01 25.388ZM151.853 28.972C151.648 29.0933 151.363 29.154 150.999 29.154C150.691 29.154 150.444 29.07 150.257 28.902C150.08 28.7247 149.991 28.44 149.991 28.048C149.664 28.44 149.282 28.7247 148.843 28.902C148.414 29.07 147.947 29.154 147.443 29.154C147.116 29.154 146.804 29.1167 146.505 29.042C146.216 28.9673 145.964 28.8507 145.749 28.692C145.534 28.5333 145.362 28.328 145.231 28.076C145.11 27.8147 145.049 27.502 145.049 27.138C145.049 26.7273 145.119 26.3913 145.259 26.13C145.399 25.8687 145.581 25.6587 145.805 25.5C146.038 25.332 146.3 25.206 146.589 25.122C146.888 25.038 147.191 24.968 147.499 24.912C147.826 24.8467 148.134 24.8 148.423 24.772C148.722 24.7347 148.983 24.688 149.207 24.632C149.431 24.5667 149.608 24.478 149.739 24.366C149.87 24.2447 149.935 24.072 149.935 23.848C149.935 23.5867 149.884 23.3767 149.781 23.218C149.688 23.0593 149.562 22.938 149.403 22.854C149.254 22.77 149.081 22.714 148.885 22.686C148.698 22.658 148.512 22.644 148.325 22.644C147.821 22.644 147.401 22.742 147.065 22.938C146.729 23.1247 146.547 23.484 146.519 24.016H145.329C145.348 23.568 145.441 23.19 145.609 22.882C145.777 22.574 146.001 22.3267 146.281 22.14C146.561 21.944 146.878 21.804 147.233 21.72C147.597 21.636 147.984 21.594 148.395 21.594C148.722 21.594 149.044 21.6173 149.361 21.664C149.688 21.7107 149.982 21.8087 150.243 21.958C150.504 22.098 150.714 22.2987 150.873 22.56C151.032 22.8213 151.111 23.162 151.111 23.582V27.306C151.111 27.586 151.125 27.7913 151.153 27.922C151.19 28.0527 151.302 28.118 151.489 28.118C151.592 28.118 151.713 28.0947 151.853 28.048V28.972ZM149.921 25.262C149.772 25.374 149.576 25.458 149.333 25.514C149.09 25.5607 148.834 25.6027 148.563 25.64C148.302 25.668 148.036 25.7053 147.765 25.752C147.494 25.7893 147.252 25.8547 147.037 25.948C146.822 26.0413 146.645 26.1767 146.505 26.354C146.374 26.522 146.309 26.7553 146.309 27.054C146.309 27.25 146.346 27.418 146.421 27.558C146.505 27.6887 146.608 27.796 146.729 27.88C146.86 27.964 147.009 28.0247 147.177 28.062C147.345 28.0993 147.522 28.118 147.709 28.118C148.101 28.118 148.437 28.0667 148.717 27.964C148.997 27.852 149.226 27.7167 149.403 27.558C149.58 27.39 149.711 27.2127 149.795 27.026C149.879 26.83 149.921 26.648 149.921 26.48V25.262ZM153.828 25.444C153.828 25.78 153.87 26.1113 153.954 26.438C154.048 26.7553 154.183 27.04 154.36 27.292C154.547 27.544 154.78 27.7447 155.06 27.894C155.35 28.0433 155.686 28.118 156.068 28.118C156.47 28.118 156.81 28.0387 157.09 27.88C157.37 27.7213 157.599 27.516 157.776 27.264C157.954 27.0027 158.08 26.7087 158.154 26.382C158.238 26.0553 158.28 25.724 158.28 25.388C158.28 25.0333 158.238 24.6927 158.154 24.366C158.07 24.03 157.935 23.736 157.748 23.484C157.571 23.232 157.338 23.0313 157.048 22.882C156.759 22.7233 156.409 22.644 155.998 22.644C155.597 22.644 155.256 22.7233 154.976 22.882C154.696 23.0407 154.472 23.2507 154.304 23.512C154.136 23.7733 154.015 24.072 153.94 24.408C153.866 24.744 153.828 25.0893 153.828 25.444ZM159.428 29H158.238V28.02H158.21C158.014 28.4213 157.706 28.7107 157.286 28.888C156.866 29.0653 156.404 29.154 155.9 29.154C155.34 29.154 154.85 29.0513 154.43 28.846C154.02 28.6407 153.674 28.3653 153.394 28.02C153.124 27.6747 152.918 27.2733 152.778 26.816C152.638 26.3587 152.568 25.8733 152.568 25.36C152.568 24.8467 152.634 24.3613 152.764 23.904C152.904 23.4467 153.11 23.05 153.38 22.714C153.66 22.3687 154.006 22.098 154.416 21.902C154.836 21.6967 155.322 21.594 155.872 21.594C156.059 21.594 156.26 21.6127 156.474 21.65C156.689 21.6873 156.904 21.7527 157.118 21.846C157.333 21.93 157.534 22.0467 157.72 22.196C157.916 22.336 158.08 22.5133 158.21 22.728H158.238V19.004H159.428V29ZM165.156 21.762H166.276V22.91H166.304C166.798 22.0327 167.582 21.594 168.656 21.594C169.132 21.594 169.528 21.6593 169.846 21.79C170.163 21.9207 170.42 22.1027 170.616 22.336C170.812 22.5693 170.947 22.8493 171.022 23.176C171.106 23.4933 171.148 23.848 171.148 24.24V29H169.958V24.1C169.958 23.652 169.827 23.2973 169.566 23.036C169.304 22.7747 168.945 22.644 168.488 22.644C168.124 22.644 167.806 22.7 167.536 22.812C167.274 22.924 167.055 23.0827 166.878 23.288C166.7 23.4933 166.565 23.736 166.472 24.016C166.388 24.2867 166.346 24.5853 166.346 24.912V29H165.156V21.762ZM177.961 24.688C177.942 24.408 177.877 24.142 177.765 23.89C177.662 23.638 177.518 23.4233 177.331 23.246C177.154 23.0593 176.939 22.9147 176.687 22.812C176.444 22.7 176.174 22.644 175.875 22.644C175.567 22.644 175.287 22.7 175.035 22.812C174.792 22.9147 174.582 23.0593 174.405 23.246C174.228 23.4327 174.088 23.652 173.985 23.904C173.882 24.1467 173.822 24.408 173.803 24.688H177.961ZM179.109 26.704C178.95 27.516 178.6 28.1273 178.059 28.538C177.518 28.9487 176.836 29.154 176.015 29.154C175.436 29.154 174.932 29.0607 174.503 28.874C174.083 28.6873 173.728 28.426 173.439 28.09C173.15 27.754 172.93 27.3527 172.781 26.886C172.641 26.4193 172.562 25.9107 172.543 25.36C172.543 24.8093 172.627 24.3053 172.795 23.848C172.963 23.3907 173.196 22.994 173.495 22.658C173.803 22.322 174.162 22.0607 174.573 21.874C174.993 21.6873 175.45 21.594 175.945 21.594C176.589 21.594 177.121 21.7293 177.541 22C177.97 22.2613 178.311 22.5973 178.563 23.008C178.824 23.4187 179.002 23.8667 179.095 24.352C179.198 24.8373 179.24 25.2993 179.221 25.738H173.803C173.794 26.0553 173.831 26.3587 173.915 26.648C173.999 26.928 174.134 27.18 174.321 27.404C174.508 27.6187 174.746 27.7913 175.035 27.922C175.324 28.0527 175.665 28.118 176.057 28.118C176.561 28.118 176.972 28.0013 177.289 27.768C177.616 27.5347 177.83 27.18 177.933 26.704H179.109ZM187.623 29H186.363L184.893 23.246H184.865L183.409 29H182.121L179.797 21.762H181.113L182.751 27.684H182.779L184.235 21.762H185.537L187.049 27.684H187.077L188.701 21.762H189.933L187.623 29ZM194.918 21.762H196.038V23.288H196.066C196.356 22.7 196.71 22.266 197.13 21.986C197.55 21.706 198.082 21.5753 198.726 21.594V22.854C198.25 22.854 197.844 22.9193 197.508 23.05C197.172 23.1807 196.902 23.372 196.696 23.624C196.491 23.876 196.342 24.184 196.248 24.548C196.155 24.9027 196.108 25.3133 196.108 25.78V29H194.918V21.762ZM204.402 24.688C204.384 24.408 204.318 24.142 204.206 23.89C204.104 23.638 203.959 23.4233 203.772 23.246C203.595 23.0593 203.38 22.9147 203.128 22.812C202.886 22.7 202.615 22.644 202.316 22.644C202.008 22.644 201.728 22.7 201.476 22.812C201.234 22.9147 201.024 23.0593 200.846 23.246C200.669 23.4327 200.529 23.652 200.426 23.904C200.324 24.1467 200.263 24.408 200.244 24.688H204.402ZM205.55 26.704C205.392 27.516 205.042 28.1273 204.5 28.538C203.959 28.9487 203.278 29.154 202.456 29.154C201.878 29.154 201.374 29.0607 200.944 28.874C200.524 28.6873 200.17 28.426 199.88 28.09C199.591 27.754 199.372 27.3527 199.222 26.886C199.082 26.4193 199.003 25.9107 198.984 25.36C198.984 24.8093 199.068 24.3053 199.236 23.848C199.404 23.3907 199.638 22.994 199.936 22.658C200.244 22.322 200.604 22.0607 201.014 21.874C201.434 21.6873 201.892 21.594 202.386 21.594C203.03 21.594 203.562 21.7293 203.982 22C204.412 22.2613 204.752 22.5973 205.004 23.008C205.266 23.4187 205.443 23.8667 205.536 24.352C205.639 24.8373 205.681 25.2993 205.662 25.738H200.244C200.235 26.0553 200.272 26.3587 200.356 26.648C200.44 26.928 200.576 27.18 200.762 27.404C200.949 27.6187 201.187 27.7913 201.476 27.922C201.766 28.0527 202.106 28.118 202.498 28.118C203.002 28.118 203.413 28.0013 203.73 27.768C204.057 27.5347 204.272 27.18 204.374 26.704H205.55ZM207.624 26.718C207.633 26.9793 207.694 27.2033 207.806 27.39C207.918 27.5673 208.063 27.712 208.24 27.824C208.427 27.9267 208.632 28.0013 208.856 28.048C209.089 28.0947 209.327 28.118 209.57 28.118C209.757 28.118 209.953 28.104 210.158 28.076C210.363 28.048 210.55 27.9967 210.718 27.922C210.895 27.8473 211.04 27.74 211.152 27.6C211.264 27.4507 211.32 27.264 211.32 27.04C211.32 26.732 211.203 26.4987 210.97 26.34C210.737 26.1813 210.443 26.0553 210.088 25.962C209.743 25.8593 209.365 25.7707 208.954 25.696C208.543 25.612 208.161 25.5 207.806 25.36C207.461 25.2107 207.171 25.0053 206.938 24.744C206.705 24.4827 206.588 24.1187 206.588 23.652C206.588 23.288 206.667 22.9753 206.826 22.714C206.994 22.4527 207.204 22.2427 207.456 22.084C207.717 21.916 208.007 21.7947 208.324 21.72C208.651 21.636 208.973 21.594 209.29 21.594C209.701 21.594 210.079 21.6313 210.424 21.706C210.769 21.7713 211.073 21.8927 211.334 22.07C211.605 22.238 211.819 22.4713 211.978 22.77C212.137 23.0593 212.23 23.4233 212.258 23.862H211.068C211.049 23.6287 210.989 23.4373 210.886 23.288C210.783 23.1293 210.653 23.0033 210.494 22.91C210.335 22.8167 210.158 22.7513 209.962 22.714C209.775 22.6673 209.584 22.644 209.388 22.644C209.211 22.644 209.029 22.658 208.842 22.686C208.665 22.714 208.501 22.7653 208.352 22.84C208.203 22.9053 208.081 22.9987 207.988 23.12C207.895 23.232 207.848 23.3813 207.848 23.568C207.848 23.7733 207.918 23.946 208.058 24.086C208.207 24.2167 208.394 24.3287 208.618 24.422C208.842 24.506 209.094 24.5807 209.374 24.646C209.654 24.702 209.934 24.7627 210.214 24.828C210.513 24.8933 210.802 24.9727 211.082 25.066C211.371 25.1593 211.623 25.2853 211.838 25.444C212.062 25.5933 212.239 25.7847 212.37 26.018C212.51 26.2513 212.58 26.5407 212.58 26.886C212.58 27.3247 212.487 27.6887 212.3 27.978C212.123 28.2673 211.885 28.5007 211.586 28.678C211.297 28.8553 210.965 28.9767 210.592 29.042C210.228 29.1167 209.864 29.154 209.5 29.154C209.099 29.154 208.716 29.112 208.352 29.028C207.988 28.944 207.666 28.8087 207.386 28.622C207.106 28.426 206.882 28.174 206.714 27.866C206.546 27.5487 206.453 27.166 206.434 26.718H207.624ZM219.888 29H218.768V27.852H218.74C218.488 28.3 218.166 28.6313 217.774 28.846C217.382 29.0513 216.92 29.154 216.388 29.154C215.912 29.154 215.515 29.0933 215.198 28.972C214.881 28.8413 214.624 28.6593 214.428 28.426C214.232 28.1927 214.092 27.9173 214.008 27.6C213.933 27.2733 213.896 26.914 213.896 26.522V21.762H215.086V26.662C215.086 27.11 215.217 27.4647 215.478 27.726C215.739 27.9873 216.099 28.118 216.556 28.118C216.92 28.118 217.233 28.062 217.494 27.95C217.765 27.838 217.989 27.6793 218.166 27.474C218.343 27.2687 218.474 27.0307 218.558 26.76C218.651 26.48 218.698 26.1767 218.698 25.85V21.762H219.888V29ZM221.675 21.762H222.795V22.826H222.823C223.365 22.0047 224.144 21.594 225.161 21.594C225.609 21.594 226.015 21.6873 226.379 21.874C226.743 22.0607 227 22.378 227.149 22.826C227.392 22.434 227.709 22.1307 228.101 21.916C228.503 21.7013 228.941 21.594 229.417 21.594C229.781 21.594 230.108 21.636 230.397 21.72C230.696 21.7947 230.948 21.916 231.153 22.084C231.368 22.252 231.531 22.4713 231.643 22.742C231.765 23.0033 231.825 23.3207 231.825 23.694V29H230.635V24.254C230.635 24.03 230.617 23.82 230.579 23.624C230.542 23.428 230.472 23.26 230.369 23.12C230.267 22.9707 230.122 22.854 229.935 22.77C229.758 22.686 229.525 22.644 229.235 22.644C228.647 22.644 228.185 22.812 227.849 23.148C227.513 23.484 227.345 23.932 227.345 24.492V29H226.155V24.254C226.155 24.0207 226.132 23.806 226.085 23.61C226.048 23.414 225.978 23.246 225.875 23.106C225.773 22.9567 225.633 22.8447 225.455 22.77C225.287 22.686 225.068 22.644 224.797 22.644C224.452 22.644 224.153 22.714 223.901 22.854C223.659 22.994 223.458 23.162 223.299 23.358C223.15 23.554 223.038 23.7593 222.963 23.974C222.898 24.1793 222.865 24.352 222.865 24.492V29H221.675V21.762ZM238.637 24.688C238.618 24.408 238.553 24.142 238.441 23.89C238.338 23.638 238.194 23.4233 238.007 23.246C237.83 23.0593 237.615 22.9147 237.363 22.812C237.12 22.7 236.85 22.644 236.551 22.644C236.243 22.644 235.963 22.7 235.711 22.812C235.468 22.9147 235.258 23.0593 235.081 23.246C234.904 23.4327 234.764 23.652 234.661 23.904C234.558 24.1467 234.498 24.408 234.479 24.688H238.637ZM239.785 26.704C239.626 27.516 239.276 28.1273 238.735 28.538C238.194 28.9487 237.512 29.154 236.691 29.154C236.112 29.154 235.608 29.0607 235.179 28.874C234.759 28.6873 234.404 28.426 234.115 28.09C233.826 27.754 233.606 27.3527 233.457 26.886C233.317 26.4193 233.238 25.9107 233.219 25.36C233.219 24.8093 233.303 24.3053 233.471 23.848C233.639 23.3907 233.872 22.994 234.171 22.658C234.479 22.322 234.838 22.0607 235.249 21.874C235.669 21.6873 236.126 21.594 236.621 21.594C237.265 21.594 237.797 21.7293 238.217 22C238.646 22.2613 238.987 22.5973 239.239 23.008C239.5 23.4187 239.678 23.8667 239.771 24.352C239.874 24.8373 239.916 25.2993 239.897 25.738H234.479C234.47 26.0553 234.507 26.3587 234.591 26.648C234.675 26.928 234.81 27.18 234.997 27.404C235.184 27.6187 235.422 27.7913 235.711 27.922C236 28.0527 236.341 28.118 236.733 28.118C237.237 28.118 237.648 28.0013 237.965 27.768C238.292 27.5347 238.506 27.18 238.609 26.704H239.785Z" fill="#2F6CE5"/>
<defs>
<clipPath id="clip0_1418_23561">
<rect width="20" height="20" fill="white" transform="translate(87 14)"/>
</clipPath>
</defs>
</svg>
