<svg width="25" height="24" viewBox="0 0 25 24" fill="none" xmlns="http://www.w3.org/2000/svg">
<g clip-path="url(#clip0_3833_15602)">
<path fill-rule="evenodd" clip-rule="evenodd" d="M12.5 13C14.8955 13 17.0753 13.6937 18.6777 14.6715C19.4786 15.1602 20.1621 15.7363 20.656 16.3615C21.142 16.9767 21.5 17.713 21.5 18.5C21.5 19.3449 21.0889 20.0111 20.4973 20.4859C19.9368 20.9359 19.1982 21.2336 18.4128 21.4416C16.8353 21.8593 14.729 22 12.5 22C10.271 22 8.16466 21.8593 6.58716 21.4416C5.80182 21.2336 5.06324 20.9359 4.50266 20.4859C3.91114 20.0111 3.5 19.3449 3.5 18.5C3.5 17.713 3.85805 16.9767 4.34397 16.3615C4.83788 15.7363 5.52143 15.1602 6.32227 14.6715C7.92467 13.6937 10.1045 13 12.5 13ZM12.5 15C10.4772 15 8.65705 15.5898 7.36402 16.3788C6.71714 16.7735 6.22913 17.2015 5.91339 17.6013C5.58967 18.0111 5.5 18.3206 5.5 18.5C5.5 18.6216 5.53657 18.7512 5.7547 18.9263C6.00376 19.1262 6.43676 19.3328 7.09914 19.5082C8.41706 19.8572 10.3107 20 12.5 20C14.6893 20 16.5829 19.8572 17.9009 19.5082C18.5632 19.3328 18.9962 19.1262 19.2453 18.9263C19.4634 18.7512 19.5 18.6216 19.5 18.5C19.5 18.3206 19.4103 18.0111 19.0866 17.6013C18.7709 17.2015 18.2829 16.7735 17.636 16.3788C16.3429 15.5898 14.5228 15 12.5 15ZM12.5 2C15.2614 2 17.5 4.23858 17.5 7C17.5 9.76142 15.2614 12 12.5 12C9.73858 12 7.5 9.76142 7.5 7C7.5 4.23858 9.73858 2 12.5 2ZM12.5 4C10.8431 4 9.5 5.34315 9.5 7C9.5 8.65685 10.8431 10 12.5 10C14.1569 10 15.5 8.65685 15.5 7C15.5 5.34315 14.1569 4 12.5 4Z" fill="#6D747A"/>
</g>
<defs>
<clipPath id="clip0_3833_15602">
<rect width="24" height="24" fill="white" transform="translate(0.5)"/>
</clipPath>
</defs>
</svg>
