<svg width="24" height="20" viewBox="0 0 17 16" fill="none" xmlns="http://www.w3.org/2000/svg">
<g clip-path="url(#clip0_16683_54918)">
<path d="M14.1246 8.98356C15.1406 8.98356 15.9643 8.16034 15.9643 7.14441C15.9643 6.12847 15.1405 5.30469 14.1246 5.30469C13.1089 5.30469 12.2852 6.12847 12.2852 7.14441C12.2852 8.16034 13.1089 8.98356 14.1246 8.98356Z" fill="#F0A20B"/>
<path d="M16.478 10.7581C16.3961 10.2656 15.9889 9.57619 15.6807 9.26822C15.6401 9.22741 15.4587 9.21797 15.4097 9.24835C15.035 9.47879 14.5949 9.61441 14.1225 9.61441C13.6507 9.61441 13.2105 9.47879 12.8358 9.24835C12.7866 9.21797 12.6054 9.22741 12.5648 9.26822C12.4786 9.35438 12.3846 9.46907 12.293 9.60207C12.5409 10.0689 12.7376 10.5649 12.8086 10.9919C12.8795 11.4201 12.8565 11.8254 12.7417 12.1949C13.1492 12.3423 13.6378 12.407 14.1225 12.407C15.3867 12.407 16.6804 11.9686 16.478 10.7581Z" fill="#F0A20B"/>
<path d="M8.45322 8.20822C10.0997 8.20822 11.4346 6.87334 11.4346 5.22691C11.4346 3.58097 10.0997 2.24609 8.45322 2.24609C6.80703 2.24609 5.47266 3.58097 5.47266 5.22691C5.47266 6.87334 6.807 8.20822 8.45322 8.20822Z" fill="#F0A20B"/>
<path d="M10.9771 8.66576C10.9124 8.60136 10.6186 8.58489 10.5387 8.63432C9.93098 9.00826 9.21776 9.22717 8.45263 9.22717C7.68807 9.22717 6.97451 9.00826 6.36707 8.63432C6.28723 8.58486 5.99345 8.60136 5.92876 8.66576C5.4281 9.16589 4.76826 10.2839 4.63551 11.081C4.3082 13.0443 6.40532 13.7531 8.45263 13.7531C10.5005 13.7531 12.5976 13.0443 12.2703 11.081C12.1375 10.2839 11.4777 9.16589 10.9771 8.66576Z" fill="#F0A20B"/>
<path d="M2.87488 8.98356C3.89056 8.98356 4.71431 8.16034 4.71431 7.14441C4.71431 6.12847 3.89056 5.30469 2.87488 5.30469C1.85891 5.30469 1.03516 6.12847 1.03516 7.14441C1.03516 8.16034 1.85891 8.98356 2.87488 8.98356Z" fill="#F0A20B"/>
<path d="M4.0967 10.9919C4.17214 10.5434 4.38498 10.0153 4.65183 9.52694C4.57745 9.42535 4.50311 9.33685 4.43448 9.26822C4.39389 9.22741 4.2127 9.21797 4.16348 9.24835C3.78876 9.47879 3.34861 9.61441 2.87655 9.61441C2.40442 9.61441 1.96398 9.47879 1.58958 9.24835C1.54058 9.21797 1.35889 9.22741 1.3183 9.26822C1.00933 9.57616 0.603234 10.2656 0.520984 10.7581C0.318859 11.9686 1.61236 12.4069 2.87655 12.4069C3.3277 12.4069 3.7833 12.3514 4.17214 12.2244C4.04961 11.8474 4.02367 11.4326 4.0967 10.9919Z" fill="#F0A20B"/>
</g>
<defs>
<clipPath id="clip0_16683_54918">
<rect width="16" height="16" fill="white" transform="translate(0.5)"/>
</clipPath>
</defs>
</svg>
