<svg width="48" height="48" viewBox="0 0 48 48" fill="none" xmlns="http://www.w3.org/2000/svg">
<circle cx="24" cy="24" r="24" fill="#B86C6D" fill-opacity="0.2"/>
<path d="M22.29 15.86L13.82 30C13.6454 30.3024 13.553 30.6453 13.552 30.9945C13.551 31.3437 13.6415 31.6871 13.8144 31.9905C13.9874 32.2939 14.2367 32.5467 14.5377 32.7238C14.8387 32.9009 15.1808 32.9961 15.53 33H32.47C32.8192 32.9961 33.1613 32.9009 33.4623 32.7238C33.7633 32.5467 34.0127 32.2939 34.1856 31.9905C34.3585 31.6871 34.449 31.3437 34.448 30.9945C34.4471 30.6453 34.3547 30.3024 34.18 30L25.71 15.86C25.5318 15.5661 25.2807 15.3231 24.9812 15.1544C24.6817 14.9858 24.3438 14.8972 24 14.8972C23.6563 14.8972 23.3184 14.9858 23.0188 15.1544C22.7193 15.3231 22.4683 15.5661 22.29 15.86Z" stroke="#D50000" stroke-width="2" stroke-linecap="round" stroke-linejoin="round"/>
<path d="M24 21V25" stroke="#D50000" stroke-width="2" stroke-linecap="round" stroke-linejoin="round"/>
<path d="M24 29H24.01" stroke="#D50000" stroke-width="2" stroke-linecap="round" stroke-linejoin="round"/>
</svg>
