<svg width="24" height="25" viewBox="0 0 24 25" fill="none" xmlns="http://www.w3.org/2000/svg">
<path d="M12 13.0898C12.5523 13.0898 13 12.6421 13 12.0898C13 11.5376 12.5523 11.0898 12 11.0898C11.4477 11.0898 11 11.5376 11 12.0898C11 12.6421 11.4477 13.0898 12 13.0898Z" stroke="#6D747A" stroke-width="2" stroke-linecap="round" stroke-linejoin="round"/>
<path d="M19 13.0898C19.5523 13.0898 20 12.6421 20 12.0898C20 11.5376 19.5523 11.0898 19 11.0898C18.4477 11.0898 18 11.5376 18 12.0898C18 12.6421 18.4477 13.0898 19 13.0898Z" stroke="#6D747A" stroke-width="2" stroke-linecap="round" stroke-linejoin="round"/>
<path d="M5 13.0898C5.55228 13.0898 6 12.6421 6 12.0898C6 11.5376 5.55228 11.0898 5 11.0898C4.44772 11.0898 4 11.5376 4 12.0898C4 12.6421 4.44772 13.0898 5 13.0898Z" stroke="#6D747A" stroke-width="2" stroke-linecap="round" stroke-linejoin="round"/>
</svg>
